<?xml version="1.0" encoding="UTF-8" standalone="no"?>
<!DOCTYPE svg PUBLIC "-//W3C//DTD SVG 1.1//EN"
 "http://www.w3.org/Graphics/SVG/1.1/DTD/svg11.dtd">
<!-- Generated by graphviz version 2.40.1 (20161225.0304)
 -->
<!-- Title: snakemake_dag Pages: 1 -->
<svg width="580pt" height="209pt"
 viewBox="0.00 0.00 580.00 209.00" xmlns="http://www.w3.org/2000/svg" xmlns:xlink="http://www.w3.org/1999/xlink">
<g id="graph0" class="graph" transform="scale(1 1) rotate(0) translate(4 205)">
<title>snakemake_dag</title>
<polygon fill="#ffffff" stroke="transparent" points="-4,4 -4,-205 576,-205 576,4 -4,4"/>
<!-- 0 -->
<g id="node1" class="node">
<title>0</title>
<path fill="none" stroke="#d85656" stroke-width="2" d="M354,-36C354,-36 324,-36 324,-36 318,-36 312,-30 312,-24 312,-24 312,-12 312,-12 312,-6 318,0 324,0 324,0 354,0 354,0 360,0 366,-6 366,-12 366,-12 366,-24 366,-24 366,-30 360,-36 354,-36"/>
<text text-anchor="middle" x="339" y="-15.5" font-family="sans" font-size="10.00" fill="#000000">all</text>
</g>
<!-- 1 -->
<g id="node2" class="node">
<title>1</title>
<path fill="none" stroke="#88d856" stroke-width="2" d="M217,-113C217,-113 141,-113 141,-113 135,-113 129,-107 129,-101 129,-101 129,-84 129,-84 129,-78 135,-72 141,-72 141,-72 217,-72 217,-72 223,-72 229,-78 229,-84 229,-84 229,-101 229,-101 229,-107 223,-113 217,-113"/>
<text text-anchor="middle" x="179" y="-101" font-family="sans" font-size="10.00" fill="#000000">gridss_s</text>
<text text-anchor="middle" x="179" y="-90" font-family="sans" font-size="10.00" fill="#000000">path: data/bam/1</text>
<text text-anchor="middle" x="179" y="-79" font-family="sans" font-size="10.00" fill="#000000">sample: T1</text>
</g>
<!-- 1&#45;&gt;0 -->
<g id="edge1" class="edge">
<title>1&#45;&gt;0</title>
<path fill="none" stroke="#c0c0c0" stroke-width="2" d="M223.1442,-71.9453C248.0212,-60.362 278.7305,-46.063 302.2808,-35.0974"/>
<polygon fill="#c0c0c0" stroke="#c0c0c0" stroke-width="2" points="303.9851,-38.1647 311.5732,-30.7706 301.0303,-31.8189 303.9851,-38.1647"/>
</g>
<!-- 2 -->
<g id="node3" class="node">
<title>2</title>
<path fill="none" stroke="#56c1d8" stroke-width="2" d="M312.5,-110.5C312.5,-110.5 259.5,-110.5 259.5,-110.5 253.5,-110.5 247.5,-104.5 247.5,-98.5 247.5,-98.5 247.5,-86.5 247.5,-86.5 247.5,-80.5 253.5,-74.5 259.5,-74.5 259.5,-74.5 312.5,-74.5 312.5,-74.5 318.5,-74.5 324.5,-80.5 324.5,-86.5 324.5,-86.5 324.5,-98.5 324.5,-98.5 324.5,-104.5 318.5,-110.5 312.5,-110.5"/>
<text text-anchor="middle" x="286" y="-90" font-family="sans" font-size="10.00" fill="#000000">delly_merge</text>
</g>
<!-- 2&#45;&gt;0 -->
<g id="edge2" class="edge">
<title>2&#45;&gt;0</title>
<path fill="none" stroke="#c0c0c0" stroke-width="2" d="M298.8298,-74.4656C305.2274,-65.4728 313.0888,-54.4223 320.1557,-44.4887"/>
<polygon fill="#c0c0c0" stroke="#c0c0c0" stroke-width="2" points="323.1597,-46.3038 326.1046,-36.1265 317.4558,-42.246 323.1597,-46.3038"/>
</g>
<!-- 3 -->
<g id="node4" class="node">
<title>3</title>
<path fill="none" stroke="#d88d56" stroke-width="2" d="M431,-113C431,-113 355,-113 355,-113 349,-113 343,-107 343,-101 343,-101 343,-84 343,-84 343,-78 349,-72 355,-72 355,-72 431,-72 431,-72 437,-72 443,-78 443,-84 443,-84 443,-101 443,-101 443,-107 437,-113 431,-113"/>
<text text-anchor="middle" x="393" y="-101" font-family="sans" font-size="10.00" fill="#000000">lumpy_s</text>
<text text-anchor="middle" x="393" y="-90" font-family="sans" font-size="10.00" fill="#000000">path: data/bam/1</text>
<text text-anchor="middle" x="393" y="-79" font-family="sans" font-size="10.00" fill="#000000">sample: T1</text>
</g>
<!-- 3&#45;&gt;0 -->
<g id="edge3" class="edge">
<title>3&#45;&gt;0</title>
<path fill="none" stroke="#c0c0c0" stroke-width="2" d="M377.958,-71.7476C371.8092,-63.2645 364.6235,-53.3509 358.1095,-44.364"/>
<polygon fill="#c0c0c0" stroke="#c0c0c0" stroke-width="2" points="360.8284,-42.1513 352.1257,-36.1087 355.1607,-46.2595 360.8284,-42.1513"/>
</g>
<!-- 4 -->
<g id="node5" class="node">
<title>4</title>
<path fill="none" stroke="#568ad8" stroke-width="2" d="M549,-113C549,-113 473,-113 473,-113 467,-113 461,-107 461,-101 461,-101 461,-84 461,-84 461,-78 467,-72 473,-72 473,-72 549,-72 549,-72 555,-72 561,-78 561,-84 561,-84 561,-101 561,-101 561,-107 555,-113 549,-113"/>
<text text-anchor="middle" x="511" y="-101" font-family="sans" font-size="10.00" fill="#000000">manta_s</text>
<text text-anchor="middle" x="511" y="-90" font-family="sans" font-size="10.00" fill="#000000">path: data/bam/1</text>
<text text-anchor="middle" x="511" y="-79" font-family="sans" font-size="10.00" fill="#000000">sample: T1</text>
</g>
<!-- 4&#45;&gt;0 -->
<g id="edge4" class="edge">
<title>4&#45;&gt;0</title>
<path fill="none" stroke="#c0c0c0" stroke-width="2" d="M463.5449,-71.9453C435.8591,-59.9535 401.4535,-45.0511 375.8241,-33.95"/>
<polygon fill="#c0c0c0" stroke="#c0c0c0" stroke-width="2" points="377.0308,-30.6585 366.4634,-29.8955 374.2485,-37.0818 377.0308,-30.6585"/>
</g>
<!-- 5 -->
<g id="node6" class="node">
<title>5</title>
<path fill="none" stroke="#56d88a" stroke-width="2" d="M88,-201C88,-201 12,-201 12,-201 6,-201 0,-195 0,-189 0,-189 0,-161 0,-161 0,-155 6,-149 12,-149 12,-149 88,-149 88,-149 94,-149 100,-155 100,-161 100,-161 100,-189 100,-189 100,-195 94,-201 88,-201"/>
<text text-anchor="middle" x="50" y="-189" font-family="sans" font-size="10.00" fill="#000000">delly_s</text>
<text text-anchor="middle" x="50" y="-178" font-family="sans" font-size="10.00" fill="#000000">path: data/bam/1</text>
<text text-anchor="middle" x="50" y="-167" font-family="sans" font-size="10.00" fill="#000000">sample: T1</text>
<text text-anchor="middle" x="50" y="-156" font-family="sans" font-size="10.00" fill="#000000">sv_type: BND</text>
</g>
<!-- 5&#45;&gt;2 -->
<g id="edge5" class="edge">
<title>5&#45;&gt;2</title>
<path fill="none" stroke="#c0c0c0" stroke-width="2" d="M100.0147,-152.3777C103.0378,-151.1918 106.049,-150.0559 109,-149 165.0445,-128.947 181.8417,-132.732 238,-113 238.0962,-112.9662 238.1924,-112.9323 238.2888,-112.8983"/>
<polygon fill="#c0c0c0" stroke="#c0c0c0" stroke-width="2" points="239.2521,-116.2746 247.3996,-109.5019 236.8069,-109.7155 239.2521,-116.2746"/>
</g>
<!-- 6 -->
<g id="node7" class="node">
<title>6</title>
<path fill="none" stroke="#56d88a" stroke-width="2" d="M206,-201C206,-201 130,-201 130,-201 124,-201 118,-195 118,-189 118,-189 118,-161 118,-161 118,-155 124,-149 130,-149 130,-149 206,-149 206,-149 212,-149 218,-155 218,-161 218,-161 218,-189 218,-189 218,-195 212,-201 206,-201"/>
<text text-anchor="middle" x="168" y="-189" font-family="sans" font-size="10.00" fill="#000000">delly_s</text>
<text text-anchor="middle" x="168" y="-178" font-family="sans" font-size="10.00" fill="#000000">path: data/bam/1</text>
<text text-anchor="middle" x="168" y="-167" font-family="sans" font-size="10.00" fill="#000000">sample: T1</text>
<text text-anchor="middle" x="168" y="-156" font-family="sans" font-size="10.00" fill="#000000">sv_type: INV</text>
</g>
<!-- 6&#45;&gt;2 -->
<g id="edge6" class="edge">
<title>6&#45;&gt;2</title>
<path fill="none" stroke="#c0c0c0" stroke-width="2" d="M205.3359,-148.8965C220.2368,-138.4785 237.2785,-126.5637 251.8472,-116.378"/>
<polygon fill="#c0c0c0" stroke="#c0c0c0" stroke-width="2" points="253.9143,-119.2034 260.1044,-110.605 249.9033,-113.4665 253.9143,-119.2034"/>
</g>
<!-- 7 -->
<g id="node8" class="node">
<title>7</title>
<path fill="none" stroke="#56d88a" stroke-width="2" d="M324,-201C324,-201 248,-201 248,-201 242,-201 236,-195 236,-189 236,-189 236,-161 236,-161 236,-155 242,-149 248,-149 248,-149 324,-149 324,-149 330,-149 336,-155 336,-161 336,-161 336,-189 336,-189 336,-195 330,-201 324,-201"/>
<text text-anchor="middle" x="286" y="-189" font-family="sans" font-size="10.00" fill="#000000">delly_s</text>
<text text-anchor="middle" x="286" y="-178" font-family="sans" font-size="10.00" fill="#000000">path: data/bam/1</text>
<text text-anchor="middle" x="286" y="-167" font-family="sans" font-size="10.00" fill="#000000">sample: T1</text>
<text text-anchor="middle" x="286" y="-156" font-family="sans" font-size="10.00" fill="#000000">sv_type: DUP</text>
</g>
<!-- 7&#45;&gt;2 -->
<g id="edge7" class="edge">
<title>7&#45;&gt;2</title>
<path fill="none" stroke="#c0c0c0" stroke-width="2" d="M286,-148.8965C286,-139.939 286,-129.8749 286,-120.7548"/>
<polygon fill="#c0c0c0" stroke="#c0c0c0" stroke-width="2" points="289.5001,-120.6049 286,-110.605 282.5001,-120.605 289.5001,-120.6049"/>
</g>
<!-- 8 -->
<g id="node9" class="node">
<title>8</title>
<path fill="none" stroke="#56d88a" stroke-width="2" d="M442,-201C442,-201 366,-201 366,-201 360,-201 354,-195 354,-189 354,-189 354,-161 354,-161 354,-155 360,-149 366,-149 366,-149 442,-149 442,-149 448,-149 454,-155 454,-161 454,-161 454,-189 454,-189 454,-195 448,-201 442,-201"/>
<text text-anchor="middle" x="404" y="-189" font-family="sans" font-size="10.00" fill="#000000">delly_s</text>
<text text-anchor="middle" x="404" y="-178" font-family="sans" font-size="10.00" fill="#000000">path: data/bam/1</text>
<text text-anchor="middle" x="404" y="-167" font-family="sans" font-size="10.00" fill="#000000">sample: T1</text>
<text text-anchor="middle" x="404" y="-156" font-family="sans" font-size="10.00" fill="#000000">sv_type: INS</text>
</g>
<!-- 8&#45;&gt;2 -->
<g id="edge8" class="edge">
<title>8&#45;&gt;2</title>
<path fill="none" stroke="#c0c0c0" stroke-width="2" d="M366.6641,-148.8965C351.7632,-138.4785 334.7215,-126.5637 320.1528,-116.378"/>
<polygon fill="#c0c0c0" stroke="#c0c0c0" stroke-width="2" points="322.0967,-113.4665 311.8956,-110.605 318.0857,-119.2034 322.0967,-113.4665"/>
</g>
<!-- 9 -->
<g id="node10" class="node">
<title>9</title>
<path fill="none" stroke="#56d88a" stroke-width="2" d="M560,-201C560,-201 484,-201 484,-201 478,-201 472,-195 472,-189 472,-189 472,-161 472,-161 472,-155 478,-149 484,-149 484,-149 560,-149 560,-149 566,-149 572,-155 572,-161 572,-161 572,-189 572,-189 572,-195 566,-201 560,-201"/>
<text text-anchor="middle" x="522" y="-189" font-family="sans" font-size="10.00" fill="#000000">delly_s</text>
<text text-anchor="middle" x="522" y="-178" font-family="sans" font-size="10.00" fill="#000000">path: data/bam/1</text>
<text text-anchor="middle" x="522" y="-167" font-family="sans" font-size="10.00" fill="#000000">sample: T1</text>
<text text-anchor="middle" x="522" y="-156" font-family="sans" font-size="10.00" fill="#000000">sv_type: DEL</text>
</g>
<!-- 9&#45;&gt;2 -->
<g id="edge9" class="edge">
<title>9&#45;&gt;2</title>
<path fill="none" stroke="#c0c0c0" stroke-width="2" d="M471.9853,-152.3777C468.9622,-151.1918 465.951,-150.0559 463,-149 406.9555,-128.947 390.1583,-132.732 334,-113 333.9038,-112.9662 333.8076,-112.9323 333.7112,-112.8983"/>
<polygon fill="#c0c0c0" stroke="#c0c0c0" stroke-width="2" points="335.1931,-109.7155 324.6004,-109.5019 332.7479,-116.2746 335.1931,-109.7155"/>
</g>
</g>
</svg>
