<?xml version="1.0" encoding="UTF-8" standalone="no"?>
<!DOCTYPE svg PUBLIC "-//W3C//DTD SVG 1.1//EN"
 "http://www.w3.org/Graphics/SVG/1.1/DTD/svg11.dtd">
<!-- Generated by graphviz version 2.40.1 (20161225.0304)
 -->
<!-- Title: snakemake_dag Pages: 1 -->
<svg width="705pt" height="380pt"
 viewBox="0.00 0.00 705.00 380.00" xmlns="http://www.w3.org/2000/svg" xmlns:xlink="http://www.w3.org/1999/xlink">
<g id="graph0" class="graph" transform="scale(1 1) rotate(0) translate(4 376)">
<title>snakemake_dag</title>
<polygon fill="#ffffff" stroke="transparent" points="-4,4 -4,-376 701,-376 701,4 -4,4"/>
<!-- 0 -->
<g id="node1" class="node">
<title>0</title>
<path fill="none" stroke="#5682d8" stroke-width="2" d="M478,-36C478,-36 448,-36 448,-36 442,-36 436,-30 436,-24 436,-24 436,-12 436,-12 436,-6 442,0 448,0 448,0 478,0 478,0 484,0 490,-6 490,-12 490,-12 490,-24 490,-24 490,-30 484,-36 478,-36"/>
<text text-anchor="middle" x="463" y="-15.5" font-family="sans" font-size="10.00" fill="#000000">all</text>
</g>
<!-- 1 -->
<g id="node2" class="node">
<title>1</title>
<path fill="none" stroke="#56d8d8" stroke-width="2" d="M497.5,-108C497.5,-108 428.5,-108 428.5,-108 422.5,-108 416.5,-102 416.5,-96 416.5,-96 416.5,-84 416.5,-84 416.5,-78 422.5,-72 428.5,-72 428.5,-72 497.5,-72 497.5,-72 503.5,-72 509.5,-78 509.5,-84 509.5,-84 509.5,-96 509.5,-96 509.5,-102 503.5,-108 497.5,-108"/>
<text text-anchor="middle" x="463" y="-87.5" font-family="sans" font-size="10.00" fill="#000000">survivor_merge</text>
</g>
<!-- 1&#45;&gt;0 -->
<g id="edge1" class="edge">
<title>1&#45;&gt;0</title>
<path fill="none" stroke="#c0c0c0" stroke-width="2" d="M463,-71.8314C463,-64.131 463,-54.9743 463,-46.4166"/>
<polygon fill="#c0c0c0" stroke="#c0c0c0" stroke-width="2" points="466.5001,-46.4132 463,-36.4133 459.5001,-46.4133 466.5001,-46.4132"/>
</g>
<!-- 2 -->
<g id="node3" class="node">
<title>2</title>
<path fill="none" stroke="#d6d856" stroke-width="2" stroke-dasharray="5,2" d="M322,-185C322,-185 250,-185 250,-185 244,-185 238,-179 238,-173 238,-173 238,-156 238,-156 238,-150 244,-144 250,-144 250,-144 322,-144 322,-144 328,-144 334,-150 334,-156 334,-156 334,-173 334,-173 334,-179 328,-185 322,-185"/>
<text text-anchor="middle" x="286" y="-173" font-family="sans" font-size="10.00" fill="#000000">survivor_filter</text>
<text text-anchor="middle" x="286" y="-162" font-family="sans" font-size="10.00" fill="#000000">outdir: delly_out</text>
<text text-anchor="middle" x="286" y="-151" font-family="sans" font-size="10.00" fill="#000000">prefix: delly</text>
</g>
<!-- 2&#45;&gt;1 -->
<g id="edge2" class="edge">
<title>2&#45;&gt;1</title>
<path fill="none" stroke="#c0c0c0" stroke-width="2" d="M334.366,-144.1425C358.0407,-134.1778 386.5768,-122.1668 410.7505,-111.992"/>
<polygon fill="#c0c0c0" stroke="#c0c0c0" stroke-width="2" points="412.266,-115.1516 420.125,-108.0463 409.5503,-108.6998 412.266,-115.1516"/>
</g>
<!-- 3 -->
<g id="node4" class="node">
<title>3</title>
<path fill="none" stroke="#d6d856" stroke-width="2" stroke-dasharray="5,2" d="M441.5,-185C441.5,-185 364.5,-185 364.5,-185 358.5,-185 352.5,-179 352.5,-173 352.5,-173 352.5,-156 352.5,-156 352.5,-150 358.5,-144 364.5,-144 364.5,-144 441.5,-144 441.5,-144 447.5,-144 453.5,-150 453.5,-156 453.5,-156 453.5,-173 453.5,-173 453.5,-179 447.5,-185 441.5,-185"/>
<text text-anchor="middle" x="403" y="-173" font-family="sans" font-size="10.00" fill="#000000">survivor_filter</text>
<text text-anchor="middle" x="403" y="-162" font-family="sans" font-size="10.00" fill="#000000">outdir: gridss_out</text>
<text text-anchor="middle" x="403" y="-151" font-family="sans" font-size="10.00" fill="#000000">prefix: gridss</text>
</g>
<!-- 3&#45;&gt;1 -->
<g id="edge3" class="edge">
<title>3&#45;&gt;1</title>
<path fill="none" stroke="#c0c0c0" stroke-width="2" d="M419.7133,-143.7476C426.6158,-135.177 434.6942,-125.1463 441.9908,-116.0864"/>
<polygon fill="#c0c0c0" stroke="#c0c0c0" stroke-width="2" points="444.8693,-118.0923 448.4158,-108.1087 439.4175,-113.7016 444.8693,-118.0923"/>
</g>
<!-- 4 -->
<g id="node5" class="node">
<title>4</title>
<path fill="none" stroke="#d6d856" stroke-width="2" stroke-dasharray="5,2" d="M562.5,-185C562.5,-185 483.5,-185 483.5,-185 477.5,-185 471.5,-179 471.5,-173 471.5,-173 471.5,-156 471.5,-156 471.5,-150 477.5,-144 483.5,-144 483.5,-144 562.5,-144 562.5,-144 568.5,-144 574.5,-150 574.5,-156 574.5,-156 574.5,-173 574.5,-173 574.5,-179 568.5,-185 562.5,-185"/>
<text text-anchor="middle" x="523" y="-173" font-family="sans" font-size="10.00" fill="#000000">survivor_filter</text>
<text text-anchor="middle" x="523" y="-162" font-family="sans" font-size="10.00" fill="#000000">outdir: lumpy_out</text>
<text text-anchor="middle" x="523" y="-151" font-family="sans" font-size="10.00" fill="#000000">prefix: lumpy</text>
</g>
<!-- 4&#45;&gt;1 -->
<g id="edge4" class="edge">
<title>4&#45;&gt;1</title>
<path fill="none" stroke="#c0c0c0" stroke-width="2" d="M506.2867,-143.7476C499.3842,-135.177 491.3058,-125.1463 484.0092,-116.0864"/>
<polygon fill="#c0c0c0" stroke="#c0c0c0" stroke-width="2" points="486.5825,-113.7016 477.5842,-108.1087 481.1307,-118.0923 486.5825,-113.7016"/>
</g>
<!-- 5 -->
<g id="node6" class="node">
<title>5</title>
<path fill="none" stroke="#d6d856" stroke-width="2" stroke-dasharray="5,2" d="M685,-185C685,-185 605,-185 605,-185 599,-185 593,-179 593,-173 593,-173 593,-156 593,-156 593,-150 599,-144 605,-144 605,-144 685,-144 685,-144 691,-144 697,-150 697,-156 697,-156 697,-173 697,-173 697,-179 691,-185 685,-185"/>
<text text-anchor="middle" x="645" y="-173" font-family="sans" font-size="10.00" fill="#000000">survivor_filter</text>
<text text-anchor="middle" x="645" y="-162" font-family="sans" font-size="10.00" fill="#000000">outdir: manta_out</text>
<text text-anchor="middle" x="645" y="-151" font-family="sans" font-size="10.00" fill="#000000">prefix: manta</text>
</g>
<!-- 5&#45;&gt;1 -->
<g id="edge5" class="edge">
<title>5&#45;&gt;1</title>
<path fill="none" stroke="#c0c0c0" stroke-width="2" d="M594.7859,-143.9453C570.5425,-134.0215 541.4296,-122.1044 516.7399,-111.9979"/>
<polygon fill="#c0c0c0" stroke="#c0c0c0" stroke-width="2" points="517.7439,-108.6271 507.1633,-108.0778 515.092,-115.1053 517.7439,-108.6271"/>
</g>
<!-- 6 -->
<g id="node7" class="node">
<title>6</title>
<path fill="none" stroke="#d8ac56" stroke-width="2" stroke-dasharray="5,2" d="M312.5,-265C312.5,-265 259.5,-265 259.5,-265 253.5,-265 247.5,-259 247.5,-253 247.5,-253 247.5,-241 247.5,-241 247.5,-235 253.5,-229 259.5,-229 259.5,-229 312.5,-229 312.5,-229 318.5,-229 324.5,-235 324.5,-241 324.5,-241 324.5,-253 324.5,-253 324.5,-259 318.5,-265 312.5,-265"/>
<text text-anchor="middle" x="286" y="-244.5" font-family="sans" font-size="10.00" fill="#000000">delly_merge</text>
</g>
<!-- 6&#45;&gt;2 -->
<g id="edge6" class="edge">
<title>6&#45;&gt;2</title>
<path fill="none" stroke="#c0c0c0" stroke-width="2" d="M286,-228.6906C286,-218.9056 286,-206.5954 286,-195.3792"/>
<polygon fill="#c0c0c0" stroke="#c0c0c0" stroke-width="2" points="289.5001,-195.0788 286,-185.0789 282.5001,-195.0789 289.5001,-195.0788"/>
</g>
<!-- 7 -->
<g id="node8" class="node">
<title>7</title>
<path fill="none" stroke="#d88556" stroke-width="2" stroke-dasharray="5,2" d="M441,-273C441,-273 365,-273 365,-273 359,-273 353,-267 353,-261 353,-261 353,-233 353,-233 353,-227 359,-221 365,-221 365,-221 441,-221 441,-221 447,-221 453,-227 453,-233 453,-233 453,-261 453,-261 453,-267 447,-273 441,-273"/>
<text text-anchor="middle" x="403" y="-261" font-family="sans" font-size="10.00" fill="#000000">gridss_p</text>
<text text-anchor="middle" x="403" y="-250" font-family="sans" font-size="10.00" fill="#000000">normal: N3</text>
<text text-anchor="middle" x="403" y="-239" font-family="sans" font-size="10.00" fill="#000000">path: data/bam/3</text>
<text text-anchor="middle" x="403" y="-228" font-family="sans" font-size="10.00" fill="#000000">tumor: T3</text>
</g>
<!-- 7&#45;&gt;3 -->
<g id="edge7" class="edge">
<title>7&#45;&gt;3</title>
<path fill="none" stroke="#c0c0c0" stroke-width="2" d="M403,-220.8965C403,-212.7976 403,-203.794 403,-195.4015"/>
<polygon fill="#c0c0c0" stroke="#c0c0c0" stroke-width="2" points="406.5001,-195.2117 403,-185.2117 399.5001,-195.2118 406.5001,-195.2117"/>
</g>
<!-- 8 -->
<g id="node9" class="node">
<title>8</title>
<path fill="none" stroke="#59d856" stroke-width="2" stroke-dasharray="5,2" d="M561,-273C561,-273 485,-273 485,-273 479,-273 473,-267 473,-261 473,-261 473,-233 473,-233 473,-227 479,-221 485,-221 485,-221 561,-221 561,-221 567,-221 573,-227 573,-233 573,-233 573,-261 573,-261 573,-267 567,-273 561,-273"/>
<text text-anchor="middle" x="523" y="-261" font-family="sans" font-size="10.00" fill="#000000">lumpy_p</text>
<text text-anchor="middle" x="523" y="-250" font-family="sans" font-size="10.00" fill="#000000">normal: N3</text>
<text text-anchor="middle" x="523" y="-239" font-family="sans" font-size="10.00" fill="#000000">path: data/bam/3</text>
<text text-anchor="middle" x="523" y="-228" font-family="sans" font-size="10.00" fill="#000000">tumor: T3</text>
</g>
<!-- 8&#45;&gt;4 -->
<g id="edge8" class="edge">
<title>8&#45;&gt;4</title>
<path fill="none" stroke="#c0c0c0" stroke-width="2" d="M523,-220.8965C523,-212.7976 523,-203.794 523,-195.4015"/>
<polygon fill="#c0c0c0" stroke="#c0c0c0" stroke-width="2" points="526.5001,-195.2117 523,-185.2117 519.5001,-195.2118 526.5001,-195.2117"/>
</g>
<!-- 9 -->
<g id="node10" class="node">
<title>9</title>
<path fill="none" stroke="#56d882" stroke-width="2" stroke-dasharray="5,2" d="M683,-273C683,-273 607,-273 607,-273 601,-273 595,-267 595,-261 595,-261 595,-233 595,-233 595,-227 601,-221 607,-221 607,-221 683,-221 683,-221 689,-221 695,-227 695,-233 695,-233 695,-261 695,-261 695,-267 689,-273 683,-273"/>
<text text-anchor="middle" x="645" y="-261" font-family="sans" font-size="10.00" fill="#000000">manta_p</text>
<text text-anchor="middle" x="645" y="-250" font-family="sans" font-size="10.00" fill="#000000">normal: N3</text>
<text text-anchor="middle" x="645" y="-239" font-family="sans" font-size="10.00" fill="#000000">path: data/bam/3</text>
<text text-anchor="middle" x="645" y="-228" font-family="sans" font-size="10.00" fill="#000000">tumor: T3</text>
</g>
<!-- 9&#45;&gt;5 -->
<g id="edge9" class="edge">
<title>9&#45;&gt;5</title>
<path fill="none" stroke="#c0c0c0" stroke-width="2" d="M645,-220.8965C645,-212.7976 645,-203.794 645,-195.4015"/>
<polygon fill="#c0c0c0" stroke="#c0c0c0" stroke-width="2" points="648.5001,-195.2117 645,-185.2117 641.5001,-195.2118 648.5001,-195.2117"/>
</g>
<!-- 10 -->
<g id="node11" class="node">
<title>10</title>
<path fill="none" stroke="#80d856" stroke-width="2" stroke-dasharray="5,2" d="M88,-372C88,-372 12,-372 12,-372 6,-372 0,-366 0,-360 0,-360 0,-321 0,-321 0,-315 6,-309 12,-309 12,-309 88,-309 88,-309 94,-309 100,-315 100,-321 100,-321 100,-360 100,-360 100,-366 94,-372 88,-372"/>
<text text-anchor="middle" x="50" y="-360" font-family="sans" font-size="10.00" fill="#000000">delly_p</text>
<text text-anchor="middle" x="50" y="-349" font-family="sans" font-size="10.00" fill="#000000">normal: N3</text>
<text text-anchor="middle" x="50" y="-338" font-family="sans" font-size="10.00" fill="#000000">path: data/bam/3</text>
<text text-anchor="middle" x="50" y="-327" font-family="sans" font-size="10.00" fill="#000000">sv_type: DUP</text>
<text text-anchor="middle" x="50" y="-316" font-family="sans" font-size="10.00" fill="#000000">tumor: T3</text>
</g>
<!-- 10&#45;&gt;6 -->
<g id="edge10" class="edge">
<title>10&#45;&gt;6</title>
<path fill="none" stroke="#c0c0c0" stroke-width="2" d="M100.2783,-313.0025C103.2079,-311.605 106.1293,-310.2602 109,-309 151.5123,-290.3375 201.5807,-273.2293 237.598,-261.7342"/>
<polygon fill="#c0c0c0" stroke="#c0c0c0" stroke-width="2" points="238.8874,-264.9973 247.3661,-258.6441 236.7761,-258.3232 238.8874,-264.9973"/>
</g>
<!-- 11 -->
<g id="node12" class="node">
<title>11</title>
<path fill="none" stroke="#80d856" stroke-width="2" stroke-dasharray="5,2" d="M206,-372C206,-372 130,-372 130,-372 124,-372 118,-366 118,-360 118,-360 118,-321 118,-321 118,-315 124,-309 130,-309 130,-309 206,-309 206,-309 212,-309 218,-315 218,-321 218,-321 218,-360 218,-360 218,-366 212,-372 206,-372"/>
<text text-anchor="middle" x="168" y="-360" font-family="sans" font-size="10.00" fill="#000000">delly_p</text>
<text text-anchor="middle" x="168" y="-349" font-family="sans" font-size="10.00" fill="#000000">normal: N3</text>
<text text-anchor="middle" x="168" y="-338" font-family="sans" font-size="10.00" fill="#000000">path: data/bam/3</text>
<text text-anchor="middle" x="168" y="-327" font-family="sans" font-size="10.00" fill="#000000">sv_type: DEL</text>
<text text-anchor="middle" x="168" y="-316" font-family="sans" font-size="10.00" fill="#000000">tumor: T3</text>
</g>
<!-- 11&#45;&gt;6 -->
<g id="edge11" class="edge">
<title>11&#45;&gt;6</title>
<path fill="none" stroke="#c0c0c0" stroke-width="2" d="M207.9494,-308.8452C223.2637,-296.7106 240.4962,-283.056 254.8658,-271.6699"/>
<polygon fill="#c0c0c0" stroke="#c0c0c0" stroke-width="2" points="257.2954,-274.2103 262.9595,-265.2567 252.9481,-268.7239 257.2954,-274.2103"/>
</g>
<!-- 12 -->
<g id="node13" class="node">
<title>12</title>
<path fill="none" stroke="#80d856" stroke-width="2" stroke-dasharray="5,2" d="M324,-372C324,-372 248,-372 248,-372 242,-372 236,-366 236,-360 236,-360 236,-321 236,-321 236,-315 242,-309 248,-309 248,-309 324,-309 324,-309 330,-309 336,-315 336,-321 336,-321 336,-360 336,-360 336,-366 330,-372 324,-372"/>
<text text-anchor="middle" x="286" y="-360" font-family="sans" font-size="10.00" fill="#000000">delly_p</text>
<text text-anchor="middle" x="286" y="-349" font-family="sans" font-size="10.00" fill="#000000">normal: N3</text>
<text text-anchor="middle" x="286" y="-338" font-family="sans" font-size="10.00" fill="#000000">path: data/bam/3</text>
<text text-anchor="middle" x="286" y="-327" font-family="sans" font-size="10.00" fill="#000000">sv_type: INS</text>
<text text-anchor="middle" x="286" y="-316" font-family="sans" font-size="10.00" fill="#000000">tumor: T3</text>
</g>
<!-- 12&#45;&gt;6 -->
<g id="edge12" class="edge">
<title>12&#45;&gt;6</title>
<path fill="none" stroke="#c0c0c0" stroke-width="2" d="M286,-308.8452C286,-298.0715 286,-286.0996 286,-275.581"/>
<polygon fill="#c0c0c0" stroke="#c0c0c0" stroke-width="2" points="289.5001,-275.2566 286,-265.2567 282.5001,-275.2567 289.5001,-275.2566"/>
</g>
<!-- 13 -->
<g id="node14" class="node">
<title>13</title>
<path fill="none" stroke="#80d856" stroke-width="2" stroke-dasharray="5,2" d="M442,-372C442,-372 366,-372 366,-372 360,-372 354,-366 354,-360 354,-360 354,-321 354,-321 354,-315 360,-309 366,-309 366,-309 442,-309 442,-309 448,-309 454,-315 454,-321 454,-321 454,-360 454,-360 454,-366 448,-372 442,-372"/>
<text text-anchor="middle" x="404" y="-360" font-family="sans" font-size="10.00" fill="#000000">delly_p</text>
<text text-anchor="middle" x="404" y="-349" font-family="sans" font-size="10.00" fill="#000000">normal: N3</text>
<text text-anchor="middle" x="404" y="-338" font-family="sans" font-size="10.00" fill="#000000">path: data/bam/3</text>
<text text-anchor="middle" x="404" y="-327" font-family="sans" font-size="10.00" fill="#000000">sv_type: INV</text>
<text text-anchor="middle" x="404" y="-316" font-family="sans" font-size="10.00" fill="#000000">tumor: T3</text>
</g>
<!-- 13&#45;&gt;6 -->
<g id="edge13" class="edge">
<title>13&#45;&gt;6</title>
<path fill="none" stroke="#c0c0c0" stroke-width="2" d="M364.0506,-308.8452C348.7363,-296.7106 331.5038,-283.056 317.1342,-271.6699"/>
<polygon fill="#c0c0c0" stroke="#c0c0c0" stroke-width="2" points="319.0519,-268.7239 309.0405,-265.2567 314.7046,-274.2103 319.0519,-268.7239"/>
</g>
<!-- 14 -->
<g id="node15" class="node">
<title>14</title>
<path fill="none" stroke="#80d856" stroke-width="2" stroke-dasharray="5,2" d="M560,-372C560,-372 484,-372 484,-372 478,-372 472,-366 472,-360 472,-360 472,-321 472,-321 472,-315 478,-309 484,-309 484,-309 560,-309 560,-309 566,-309 572,-315 572,-321 572,-321 572,-360 572,-360 572,-366 566,-372 560,-372"/>
<text text-anchor="middle" x="522" y="-360" font-family="sans" font-size="10.00" fill="#000000">delly_p</text>
<text text-anchor="middle" x="522" y="-349" font-family="sans" font-size="10.00" fill="#000000">normal: N3</text>
<text text-anchor="middle" x="522" y="-338" font-family="sans" font-size="10.00" fill="#000000">path: data/bam/3</text>
<text text-anchor="middle" x="522" y="-327" font-family="sans" font-size="10.00" fill="#000000">sv_type: BND</text>
<text text-anchor="middle" x="522" y="-316" font-family="sans" font-size="10.00" fill="#000000">tumor: T3</text>
</g>
<!-- 14&#45;&gt;6 -->
<g id="edge14" class="edge">
<title>14&#45;&gt;6</title>
<path fill="none" stroke="#c0c0c0" stroke-width="2" d="M471.7854,-312.8531C468.8396,-311.4936 465.8972,-310.198 463,-309 411.937,-287.8859 395.7607,-292.3408 344,-273 340.6954,-271.7652 337.3117,-270.4334 333.9202,-269.048"/>
<polygon fill="#c0c0c0" stroke="#c0c0c0" stroke-width="2" points="334.975,-265.6945 324.4005,-265.0379 332.2575,-272.1455 334.975,-265.6945"/>
</g>
</g>
</svg>
