<?xml version="1.0" encoding="UTF-8" standalone="no"?>
<!DOCTYPE svg PUBLIC "-//W3C//DTD SVG 1.1//EN"
 "http://www.w3.org/Graphics/SVG/1.1/DTD/svg11.dtd">
<!-- Generated by graphviz version 2.40.1 (20161225.0304)
 -->
<!-- Title: snakemake_dag Pages: 1 -->
<svg width="580pt" height="231pt"
 viewBox="0.00 0.00 580.00 231.00" xmlns="http://www.w3.org/2000/svg" xmlns:xlink="http://www.w3.org/1999/xlink">
<g id="graph0" class="graph" transform="scale(1 1) rotate(0) translate(4 227)">
<title>snakemake_dag</title>
<polygon fill="#ffffff" stroke="transparent" points="-4,4 -4,-227 576,-227 576,4 -4,4"/>
<!-- 0 -->
<g id="node1" class="node">
<title>0</title>
<path fill="none" stroke="#568ad8" stroke-width="2" d="M247,-36C247,-36 217,-36 217,-36 211,-36 205,-30 205,-24 205,-24 205,-12 205,-12 205,-6 211,0 217,0 217,0 247,0 247,0 253,0 259,-6 259,-12 259,-12 259,-24 259,-24 259,-30 253,-36 247,-36"/>
<text text-anchor="middle" x="232" y="-15.5" font-family="sans" font-size="10.00" fill="#000000">all</text>
</g>
<!-- 1 -->
<g id="node2" class="node">
<title>1</title>
<path fill="none" stroke="#59d856" stroke-width="2" d="M99,-124C99,-124 23,-124 23,-124 17,-124 11,-118 11,-112 11,-112 11,-84 11,-84 11,-78 17,-72 23,-72 23,-72 99,-72 99,-72 105,-72 111,-78 111,-84 111,-84 111,-112 111,-112 111,-118 105,-124 99,-124"/>
<text text-anchor="middle" x="61" y="-112" font-family="sans" font-size="10.00" fill="#000000">gridss_p</text>
<text text-anchor="middle" x="61" y="-101" font-family="sans" font-size="10.00" fill="#000000">normal: N1</text>
<text text-anchor="middle" x="61" y="-90" font-family="sans" font-size="10.00" fill="#000000">path: data/bam/1</text>
<text text-anchor="middle" x="61" y="-79" font-family="sans" font-size="10.00" fill="#000000">tumor: T1</text>
</g>
<!-- 1&#45;&gt;0 -->
<g id="edge1" class="edge">
<title>1&#45;&gt;0</title>
<path fill="none" stroke="#c0c0c0" stroke-width="2" d="M111.3808,-74.4301C138.3421,-61.8165 170.9427,-46.5648 195.4509,-35.099"/>
<polygon fill="#c0c0c0" stroke="#c0c0c0" stroke-width="2" points="197.1763,-38.1559 204.7509,-30.7481 194.21,-31.8155 197.1763,-38.1559"/>
</g>
<!-- 2 -->
<g id="node3" class="node">
<title>2</title>
<path fill="none" stroke="#d8bc56" stroke-width="2" d="M217,-124C217,-124 141,-124 141,-124 135,-124 129,-118 129,-112 129,-112 129,-84 129,-84 129,-78 135,-72 141,-72 141,-72 217,-72 217,-72 223,-72 229,-78 229,-84 229,-84 229,-112 229,-112 229,-118 223,-124 217,-124"/>
<text text-anchor="middle" x="179" y="-112" font-family="sans" font-size="10.00" fill="#000000">lumpy_p</text>
<text text-anchor="middle" x="179" y="-101" font-family="sans" font-size="10.00" fill="#000000">normal: N1</text>
<text text-anchor="middle" x="179" y="-90" font-family="sans" font-size="10.00" fill="#000000">path: data/bam/1</text>
<text text-anchor="middle" x="179" y="-79" font-family="sans" font-size="10.00" fill="#000000">tumor: T1</text>
</g>
<!-- 2&#45;&gt;0 -->
<g id="edge2" class="edge">
<title>2&#45;&gt;0</title>
<path fill="none" stroke="#c0c0c0" stroke-width="2" d="M196.3542,-71.805C202.1506,-63.0557 208.6124,-53.3021 214.4254,-44.5277"/>
<polygon fill="#c0c0c0" stroke="#c0c0c0" stroke-width="2" points="217.3683,-46.4228 219.9735,-36.1532 211.5327,-42.5567 217.3683,-46.4228"/>
</g>
<!-- 3 -->
<g id="node4" class="node">
<title>3</title>
<path fill="none" stroke="#88d856" stroke-width="2" d="M312.5,-116C312.5,-116 259.5,-116 259.5,-116 253.5,-116 247.5,-110 247.5,-104 247.5,-104 247.5,-92 247.5,-92 247.5,-86 253.5,-80 259.5,-80 259.5,-80 312.5,-80 312.5,-80 318.5,-80 324.5,-86 324.5,-92 324.5,-92 324.5,-104 324.5,-104 324.5,-110 318.5,-116 312.5,-116"/>
<text text-anchor="middle" x="286" y="-95.5" font-family="sans" font-size="10.00" fill="#000000">delly_merge</text>
</g>
<!-- 3&#45;&gt;0 -->
<g id="edge3" class="edge">
<title>3&#45;&gt;0</title>
<path fill="none" stroke="#c0c0c0" stroke-width="2" d="M273.7466,-79.8468C266.7042,-69.4137 257.7312,-56.1203 249.9101,-44.5335"/>
<polygon fill="#c0c0c0" stroke="#c0c0c0" stroke-width="2" points="252.7007,-42.4117 244.2049,-36.0814 246.8987,-46.3281 252.7007,-42.4117"/>
</g>
<!-- 4 -->
<g id="node5" class="node">
<title>4</title>
<path fill="none" stroke="#bed856" stroke-width="2" d="M431,-124C431,-124 355,-124 355,-124 349,-124 343,-118 343,-112 343,-112 343,-84 343,-84 343,-78 349,-72 355,-72 355,-72 431,-72 431,-72 437,-72 443,-78 443,-84 443,-84 443,-112 443,-112 443,-118 437,-124 431,-124"/>
<text text-anchor="middle" x="393" y="-112" font-family="sans" font-size="10.00" fill="#000000">manta_p</text>
<text text-anchor="middle" x="393" y="-101" font-family="sans" font-size="10.00" fill="#000000">normal: N1</text>
<text text-anchor="middle" x="393" y="-90" font-family="sans" font-size="10.00" fill="#000000">path: data/bam/1</text>
<text text-anchor="middle" x="393" y="-79" font-family="sans" font-size="10.00" fill="#000000">tumor: T1</text>
</g>
<!-- 4&#45;&gt;0 -->
<g id="edge4" class="edge">
<title>4&#45;&gt;0</title>
<path fill="none" stroke="#c0c0c0" stroke-width="2" d="M342.9411,-73.126C318.7102,-61.0858 290.1638,-46.9013 268.0963,-35.936"/>
<polygon fill="#c0c0c0" stroke="#c0c0c0" stroke-width="2" points="269.5798,-32.7649 259.0669,-31.4494 266.4648,-39.0337 269.5798,-32.7649"/>
</g>
<!-- 5 -->
<g id="node6" class="node">
<title>5</title>
<path fill="none" stroke="#56d8c1" stroke-width="2" d="M88,-223C88,-223 12,-223 12,-223 6,-223 0,-217 0,-211 0,-211 0,-172 0,-172 0,-166 6,-160 12,-160 12,-160 88,-160 88,-160 94,-160 100,-166 100,-172 100,-172 100,-211 100,-211 100,-217 94,-223 88,-223"/>
<text text-anchor="middle" x="50" y="-211" font-family="sans" font-size="10.00" fill="#000000">delly_p</text>
<text text-anchor="middle" x="50" y="-200" font-family="sans" font-size="10.00" fill="#000000">normal: N1</text>
<text text-anchor="middle" x="50" y="-189" font-family="sans" font-size="10.00" fill="#000000">path: data/bam/1</text>
<text text-anchor="middle" x="50" y="-178" font-family="sans" font-size="10.00" fill="#000000">sv_type: DUP</text>
<text text-anchor="middle" x="50" y="-167" font-family="sans" font-size="10.00" fill="#000000">tumor: T1</text>
</g>
<!-- 5&#45;&gt;3 -->
<g id="edge5" class="edge">
<title>5&#45;&gt;3</title>
<path fill="none" stroke="#c0c0c0" stroke-width="2" d="M100.184,-163.7777C103.1376,-162.4375 106.09,-161.1666 109,-160 164.2498,-137.851 182.8172,-146.3153 238,-124 240.6358,-122.9341 243.3131,-121.761 245.9858,-120.5204"/>
<polygon fill="#c0c0c0" stroke="#c0c0c0" stroke-width="2" points="247.5549,-123.6491 254.989,-116.1003 244.47,-117.3655 247.5549,-123.6491"/>
</g>
<!-- 6 -->
<g id="node7" class="node">
<title>6</title>
<path fill="none" stroke="#56d8c1" stroke-width="2" d="M206,-223C206,-223 130,-223 130,-223 124,-223 118,-217 118,-211 118,-211 118,-172 118,-172 118,-166 124,-160 130,-160 130,-160 206,-160 206,-160 212,-160 218,-166 218,-172 218,-172 218,-211 218,-211 218,-217 212,-223 206,-223"/>
<text text-anchor="middle" x="168" y="-211" font-family="sans" font-size="10.00" fill="#000000">delly_p</text>
<text text-anchor="middle" x="168" y="-200" font-family="sans" font-size="10.00" fill="#000000">normal: N1</text>
<text text-anchor="middle" x="168" y="-189" font-family="sans" font-size="10.00" fill="#000000">path: data/bam/1</text>
<text text-anchor="middle" x="168" y="-178" font-family="sans" font-size="10.00" fill="#000000">sv_type: DEL</text>
<text text-anchor="middle" x="168" y="-167" font-family="sans" font-size="10.00" fill="#000000">tumor: T1</text>
</g>
<!-- 6&#45;&gt;3 -->
<g id="edge6" class="edge">
<title>6&#45;&gt;3</title>
<path fill="none" stroke="#c0c0c0" stroke-width="2" d="M207.9494,-159.8452C223.2637,-147.7106 240.4962,-134.056 254.8658,-122.6699"/>
<polygon fill="#c0c0c0" stroke="#c0c0c0" stroke-width="2" points="257.2954,-125.2103 262.9595,-116.2567 252.9481,-119.7239 257.2954,-125.2103"/>
</g>
<!-- 7 -->
<g id="node8" class="node">
<title>7</title>
<path fill="none" stroke="#56d8c1" stroke-width="2" d="M324,-223C324,-223 248,-223 248,-223 242,-223 236,-217 236,-211 236,-211 236,-172 236,-172 236,-166 242,-160 248,-160 248,-160 324,-160 324,-160 330,-160 336,-166 336,-172 336,-172 336,-211 336,-211 336,-217 330,-223 324,-223"/>
<text text-anchor="middle" x="286" y="-211" font-family="sans" font-size="10.00" fill="#000000">delly_p</text>
<text text-anchor="middle" x="286" y="-200" font-family="sans" font-size="10.00" fill="#000000">normal: N1</text>
<text text-anchor="middle" x="286" y="-189" font-family="sans" font-size="10.00" fill="#000000">path: data/bam/1</text>
<text text-anchor="middle" x="286" y="-178" font-family="sans" font-size="10.00" fill="#000000">sv_type: INV</text>
<text text-anchor="middle" x="286" y="-167" font-family="sans" font-size="10.00" fill="#000000">tumor: T1</text>
</g>
<!-- 7&#45;&gt;3 -->
<g id="edge7" class="edge">
<title>7&#45;&gt;3</title>
<path fill="none" stroke="#c0c0c0" stroke-width="2" d="M286,-159.8452C286,-149.0715 286,-137.0996 286,-126.581"/>
<polygon fill="#c0c0c0" stroke="#c0c0c0" stroke-width="2" points="289.5001,-126.2566 286,-116.2567 282.5001,-126.2567 289.5001,-126.2566"/>
</g>
<!-- 8 -->
<g id="node9" class="node">
<title>8</title>
<path fill="none" stroke="#56d8c1" stroke-width="2" d="M442,-223C442,-223 366,-223 366,-223 360,-223 354,-217 354,-211 354,-211 354,-172 354,-172 354,-166 360,-160 366,-160 366,-160 442,-160 442,-160 448,-160 454,-166 454,-172 454,-172 454,-211 454,-211 454,-217 448,-223 442,-223"/>
<text text-anchor="middle" x="404" y="-211" font-family="sans" font-size="10.00" fill="#000000">delly_p</text>
<text text-anchor="middle" x="404" y="-200" font-family="sans" font-size="10.00" fill="#000000">normal: N1</text>
<text text-anchor="middle" x="404" y="-189" font-family="sans" font-size="10.00" fill="#000000">path: data/bam/1</text>
<text text-anchor="middle" x="404" y="-178" font-family="sans" font-size="10.00" fill="#000000">sv_type: BND</text>
<text text-anchor="middle" x="404" y="-167" font-family="sans" font-size="10.00" fill="#000000">tumor: T1</text>
</g>
<!-- 8&#45;&gt;3 -->
<g id="edge8" class="edge">
<title>8&#45;&gt;3</title>
<path fill="none" stroke="#c0c0c0" stroke-width="2" d="M364.0506,-159.8452C348.7363,-147.7106 331.5038,-134.056 317.1342,-122.6699"/>
<polygon fill="#c0c0c0" stroke="#c0c0c0" stroke-width="2" points="319.0519,-119.7239 309.0405,-116.2567 314.7046,-125.2103 319.0519,-119.7239"/>
</g>
<!-- 9 -->
<g id="node10" class="node">
<title>9</title>
<path fill="none" stroke="#56d8c1" stroke-width="2" d="M560,-223C560,-223 484,-223 484,-223 478,-223 472,-217 472,-211 472,-211 472,-172 472,-172 472,-166 478,-160 484,-160 484,-160 560,-160 560,-160 566,-160 572,-166 572,-172 572,-172 572,-211 572,-211 572,-217 566,-223 560,-223"/>
<text text-anchor="middle" x="522" y="-211" font-family="sans" font-size="10.00" fill="#000000">delly_p</text>
<text text-anchor="middle" x="522" y="-200" font-family="sans" font-size="10.00" fill="#000000">normal: N1</text>
<text text-anchor="middle" x="522" y="-189" font-family="sans" font-size="10.00" fill="#000000">path: data/bam/1</text>
<text text-anchor="middle" x="522" y="-178" font-family="sans" font-size="10.00" fill="#000000">sv_type: INS</text>
<text text-anchor="middle" x="522" y="-167" font-family="sans" font-size="10.00" fill="#000000">tumor: T1</text>
</g>
<!-- 9&#45;&gt;3 -->
<g id="edge9" class="edge">
<title>9&#45;&gt;3</title>
<path fill="none" stroke="#c0c0c0" stroke-width="2" d="M471.816,-163.7777C468.8624,-162.4375 465.91,-161.1666 463,-160 407.7502,-137.851 389.1828,-146.3153 334,-124 331.3642,-122.9341 328.6869,-121.761 326.0142,-120.5204"/>
<polygon fill="#c0c0c0" stroke="#c0c0c0" stroke-width="2" points="327.53,-117.3655 317.011,-116.1003 324.4451,-123.6491 327.53,-117.3655"/>
</g>
</g>
</svg>
