<?xml version="1.0" encoding="UTF-8" standalone="no"?>
<!DOCTYPE svg PUBLIC "-//W3C//DTD SVG 1.1//EN"
 "http://www.w3.org/Graphics/SVG/1.1/DTD/svg11.dtd">
<!-- Generated by graphviz version 3.0.0 (20220315.2325)
 -->
<!-- Title: snakemake_dag Pages: 1 -->
<svg width="567pt" height="463pt"
 viewBox="0.00 0.00 566.50 463.00" xmlns="http://www.w3.org/2000/svg" xmlns:xlink="http://www.w3.org/1999/xlink">
<g id="graph0" class="graph" transform="scale(1 1) rotate(0) translate(4 459)">
<title>snakemake_dag</title>
<polygon fill="white" stroke="transparent" points="-4,4 -4,-459 562.5,-459 562.5,4 -4,4"/>
<!-- 0 -->
<g id="node1" class="node">
<title>0</title>
<path fill="none" stroke="#d85656" stroke-width="2" d="M349.5,-36C349.5,-36 319.5,-36 319.5,-36 313.5,-36 307.5,-30 307.5,-24 307.5,-24 307.5,-12 307.5,-12 307.5,-6 313.5,0 319.5,0 319.5,0 349.5,0 349.5,0 355.5,0 361.5,-6 361.5,-12 361.5,-12 361.5,-24 361.5,-24 361.5,-30 355.5,-36 349.5,-36"/>
<text text-anchor="middle" x="334.5" y="-15.5" font-family="sans" font-size="10.00">all</text>
</g>
<!-- 1 -->
<g id="node2" class="node">
<title>1</title>
<path fill="none" stroke="#d8cb56" stroke-width="2" d="M367.5,-108C367.5,-108 301.5,-108 301.5,-108 295.5,-108 289.5,-102 289.5,-96 289.5,-96 289.5,-84 289.5,-84 289.5,-78 295.5,-72 301.5,-72 301.5,-72 367.5,-72 367.5,-72 373.5,-72 379.5,-78 379.5,-84 379.5,-84 379.5,-96 379.5,-96 379.5,-102 373.5,-108 367.5,-108"/>
<text text-anchor="middle" x="334.5" y="-87.5" font-family="sans" font-size="10.00">survivor_merge</text>
</g>
<!-- 1&#45;&gt;0 -->
<g id="edge1" class="edge">
<title>1&#45;&gt;0</title>
<path fill="none" stroke="grey" stroke-width="2" d="M334.5,-71.7C334.5,-63.98 334.5,-54.71 334.5,-46.11"/>
<polygon fill="grey" stroke="grey" stroke-width="2" points="338,-46.1 334.5,-36.1 331,-46.1 338,-46.1"/>
</g>
<!-- 2 -->
<g id="node3" class="node">
<title>2</title>
<path fill="none" stroke="#56d0d8" stroke-width="2" d="M203.5,-180C203.5,-180 145.5,-180 145.5,-180 139.5,-180 133.5,-174 133.5,-168 133.5,-168 133.5,-156 133.5,-156 133.5,-150 139.5,-144 145.5,-144 145.5,-144 203.5,-144 203.5,-144 209.5,-144 215.5,-150 215.5,-156 215.5,-156 215.5,-168 215.5,-168 215.5,-174 209.5,-180 203.5,-180"/>
<text text-anchor="middle" x="174.5" y="-159.5" font-family="sans" font-size="10.00">survivor_filter</text>
</g>
<!-- 2&#45;&gt;1 -->
<g id="edge2" class="edge">
<title>2&#45;&gt;1</title>
<path fill="none" stroke="grey" stroke-width="2" d="M213.64,-143.88C235.51,-134.31 262.96,-122.3 286.16,-112.15"/>
<polygon fill="grey" stroke="grey" stroke-width="2" points="287.73,-115.28 295.49,-108.07 284.92,-108.87 287.73,-115.28"/>
</g>
<!-- 3 -->
<g id="node4" class="node">
<title>3</title>
<path fill="none" stroke="#56d86b" stroke-width="2" d="M202.5,-268C202.5,-268 126.5,-268 126.5,-268 120.5,-268 114.5,-262 114.5,-256 114.5,-256 114.5,-228 114.5,-228 114.5,-222 120.5,-216 126.5,-216 126.5,-216 202.5,-216 202.5,-216 208.5,-216 214.5,-222 214.5,-228 214.5,-228 214.5,-256 214.5,-256 214.5,-262 208.5,-268 202.5,-268"/>
<text text-anchor="middle" x="164.5" y="-256" font-family="sans" font-size="10.00">viola</text>
<text text-anchor="middle" x="164.5" y="-245" font-family="sans" font-size="10.00">outdir: manta_out</text>
<text text-anchor="middle" x="164.5" y="-234" font-family="sans" font-size="10.00">prefix: manta</text>
<text text-anchor="middle" x="164.5" y="-223" font-family="sans" font-size="10.00">sample: T3&#45;&#45;N3</text>
</g>
<!-- 3&#45;&gt;2 -->
<g id="edge6" class="edge">
<title>3&#45;&gt;2</title>
<path fill="none" stroke="grey" stroke-width="2" d="M167.72,-215.89C168.76,-207.75 169.93,-198.68 170.99,-190.38"/>
<polygon fill="grey" stroke="grey" stroke-width="2" points="174.47,-190.77 172.27,-180.41 167.52,-189.88 174.47,-190.77"/>
</g>
<!-- 4 -->
<g id="node5" class="node">
<title>4</title>
<path fill="none" stroke="#68d856" stroke-width="2" d="M201,-356C201,-356 128,-356 128,-356 122,-356 116,-350 116,-344 116,-344 116,-316 116,-316 116,-310 122,-304 128,-304 128,-304 201,-304 201,-304 207,-304 213,-310 213,-316 213,-316 213,-344 213,-344 213,-350 207,-356 201,-356"/>
<text text-anchor="middle" x="164.5" y="-344" font-family="sans" font-size="10.00">manta_p</text>
<text text-anchor="middle" x="164.5" y="-333" font-family="sans" font-size="10.00">normal: N3</text>
<text text-anchor="middle" x="164.5" y="-322" font-family="sans" font-size="10.00">path: data/bam/3</text>
<text text-anchor="middle" x="164.5" y="-311" font-family="sans" font-size="10.00">tumor: T3</text>
</g>
<!-- 4&#45;&gt;3 -->
<g id="edge7" class="edge">
<title>4&#45;&gt;3</title>
<path fill="none" stroke="grey" stroke-width="2" d="M164.5,-303.66C164.5,-295.7 164.5,-286.76 164.5,-278.24"/>
<polygon fill="grey" stroke="grey" stroke-width="2" points="168,-278.16 164.5,-268.16 161,-278.16 168,-278.16"/>
</g>
<!-- 5 -->
<g id="node6" class="node">
<title>5</title>
<path fill="none" stroke="#56d0d8" stroke-width="2" d="M310.5,-180C310.5,-180 252.5,-180 252.5,-180 246.5,-180 240.5,-174 240.5,-168 240.5,-168 240.5,-156 240.5,-156 240.5,-150 246.5,-144 252.5,-144 252.5,-144 310.5,-144 310.5,-144 316.5,-144 322.5,-150 322.5,-156 322.5,-156 322.5,-168 322.5,-168 322.5,-174 316.5,-180 310.5,-180"/>
<text text-anchor="middle" x="281.5" y="-159.5" font-family="sans" font-size="10.00">survivor_filter</text>
</g>
<!-- 5&#45;&gt;1 -->
<g id="edge3" class="edge">
<title>5&#45;&gt;1</title>
<path fill="none" stroke="grey" stroke-width="2" d="M294.6,-143.7C300.89,-135.39 308.55,-125.28 315.46,-116.14"/>
<polygon fill="grey" stroke="grey" stroke-width="2" points="318.3,-118.19 321.55,-108.1 312.72,-113.96 318.3,-118.19"/>
</g>
<!-- 6 -->
<g id="node7" class="node">
<title>6</title>
<path fill="none" stroke="#56d86b" stroke-width="2" d="M312.5,-262.5C312.5,-262.5 244.5,-262.5 244.5,-262.5 238.5,-262.5 232.5,-256.5 232.5,-250.5 232.5,-250.5 232.5,-233.5 232.5,-233.5 232.5,-227.5 238.5,-221.5 244.5,-221.5 244.5,-221.5 312.5,-221.5 312.5,-221.5 318.5,-221.5 324.5,-227.5 324.5,-233.5 324.5,-233.5 324.5,-250.5 324.5,-250.5 324.5,-256.5 318.5,-262.5 312.5,-262.5"/>
<text text-anchor="middle" x="278.5" y="-250.5" font-family="sans" font-size="10.00">viola</text>
<text text-anchor="middle" x="278.5" y="-239.5" font-family="sans" font-size="10.00">outdir: delly_out</text>
<text text-anchor="middle" x="278.5" y="-228.5" font-family="sans" font-size="10.00">prefix: delly</text>
</g>
<!-- 6&#45;&gt;5 -->
<g id="edge8" class="edge">
<title>6&#45;&gt;5</title>
<path fill="none" stroke="grey" stroke-width="2" d="M279.26,-221.32C279.62,-211.87 280.06,-200.4 280.46,-190.14"/>
<polygon fill="grey" stroke="grey" stroke-width="2" points="283.96,-190.15 280.85,-180.03 276.96,-189.89 283.96,-190.15"/>
</g>
<!-- 7 -->
<g id="node8" class="node">
<title>7</title>
<path fill="none" stroke="#56a9d8" stroke-width="2" d="M309.5,-348C309.5,-348 247.5,-348 247.5,-348 241.5,-348 235.5,-342 235.5,-336 235.5,-336 235.5,-324 235.5,-324 235.5,-318 241.5,-312 247.5,-312 247.5,-312 309.5,-312 309.5,-312 315.5,-312 321.5,-318 321.5,-324 321.5,-324 321.5,-336 321.5,-336 321.5,-342 315.5,-348 309.5,-348"/>
<text text-anchor="middle" x="278.5" y="-333" font-family="sans" font-size="10.00">delly_merge</text>
<text text-anchor="middle" x="278.5" y="-322" font-family="sans" font-size="10.00">sample: T3&#45;&#45;N3</text>
</g>
<!-- 7&#45;&gt;6 -->
<g id="edge9" class="edge">
<title>7&#45;&gt;6</title>
<path fill="none" stroke="grey" stroke-width="2" d="M278.5,-311.6C278.5,-300.55 278.5,-285.97 278.5,-273.09"/>
<polygon fill="grey" stroke="grey" stroke-width="2" points="282,-272.78 278.5,-262.78 275,-272.78 282,-272.78"/>
</g>
<!-- 8 -->
<g id="node9" class="node">
<title>8</title>
<path fill="none" stroke="#567bd8" stroke-width="2" d="M85,-455C85,-455 12,-455 12,-455 6,-455 0,-449 0,-443 0,-443 0,-404 0,-404 0,-398 6,-392 12,-392 12,-392 85,-392 85,-392 91,-392 97,-398 97,-404 97,-404 97,-443 97,-443 97,-449 91,-455 85,-455"/>
<text text-anchor="middle" x="48.5" y="-443" font-family="sans" font-size="10.00">delly_p</text>
<text text-anchor="middle" x="48.5" y="-432" font-family="sans" font-size="10.00">normal: N3</text>
<text text-anchor="middle" x="48.5" y="-421" font-family="sans" font-size="10.00">path: data/bam/3</text>
<text text-anchor="middle" x="48.5" y="-410" font-family="sans" font-size="10.00">sv_type: BND</text>
<text text-anchor="middle" x="48.5" y="-399" font-family="sans" font-size="10.00">tumor: T3</text>
</g>
<!-- 8&#45;&gt;7 -->
<g id="edge10" class="edge">
<title>8&#45;&gt;7</title>
<path fill="none" stroke="grey" stroke-width="2" d="M97.02,-395.75C99.86,-394.43 102.7,-393.17 105.5,-392 155.3,-371.17 170.92,-374.87 221.5,-356 224.94,-354.72 228.48,-353.33 232.01,-351.9"/>
<polygon fill="grey" stroke="grey" stroke-width="2" points="233.45,-355.09 241.34,-348.01 230.76,-348.63 233.45,-355.09"/>
</g>
<!-- 9 -->
<g id="node10" class="node">
<title>9</title>
<path fill="none" stroke="#567bd8" stroke-width="2" d="M200,-455C200,-455 127,-455 127,-455 121,-455 115,-449 115,-443 115,-443 115,-404 115,-404 115,-398 121,-392 127,-392 127,-392 200,-392 200,-392 206,-392 212,-398 212,-404 212,-404 212,-443 212,-443 212,-449 206,-455 200,-455"/>
<text text-anchor="middle" x="163.5" y="-443" font-family="sans" font-size="10.00">delly_p</text>
<text text-anchor="middle" x="163.5" y="-432" font-family="sans" font-size="10.00">normal: N3</text>
<text text-anchor="middle" x="163.5" y="-421" font-family="sans" font-size="10.00">path: data/bam/3</text>
<text text-anchor="middle" x="163.5" y="-410" font-family="sans" font-size="10.00">sv_type: DEL</text>
<text text-anchor="middle" x="163.5" y="-399" font-family="sans" font-size="10.00">tumor: T3</text>
</g>
<!-- 9&#45;&gt;7 -->
<g id="edge11" class="edge">
<title>9&#45;&gt;7</title>
<path fill="none" stroke="grey" stroke-width="2" d="M202.11,-391.78C217.39,-379.63 234.66,-365.88 248.91,-354.54"/>
<polygon fill="grey" stroke="grey" stroke-width="2" points="251.27,-357.14 256.92,-348.17 246.91,-351.66 251.27,-357.14"/>
</g>
<!-- 10 -->
<g id="node11" class="node">
<title>10</title>
<path fill="none" stroke="#567bd8" stroke-width="2" d="M315,-455C315,-455 242,-455 242,-455 236,-455 230,-449 230,-443 230,-443 230,-404 230,-404 230,-398 236,-392 242,-392 242,-392 315,-392 315,-392 321,-392 327,-398 327,-404 327,-404 327,-443 327,-443 327,-449 321,-455 315,-455"/>
<text text-anchor="middle" x="278.5" y="-443" font-family="sans" font-size="10.00">delly_p</text>
<text text-anchor="middle" x="278.5" y="-432" font-family="sans" font-size="10.00">normal: N3</text>
<text text-anchor="middle" x="278.5" y="-421" font-family="sans" font-size="10.00">path: data/bam/3</text>
<text text-anchor="middle" x="278.5" y="-410" font-family="sans" font-size="10.00">sv_type: DUP</text>
<text text-anchor="middle" x="278.5" y="-399" font-family="sans" font-size="10.00">tumor: T3</text>
</g>
<!-- 10&#45;&gt;7 -->
<g id="edge12" class="edge">
<title>10&#45;&gt;7</title>
<path fill="none" stroke="grey" stroke-width="2" d="M278.5,-391.78C278.5,-380.99 278.5,-368.94 278.5,-358.44"/>
<polygon fill="grey" stroke="grey" stroke-width="2" points="282,-358.17 278.5,-348.17 275,-358.17 282,-358.17"/>
</g>
<!-- 11 -->
<g id="node12" class="node">
<title>11</title>
<path fill="none" stroke="#567bd8" stroke-width="2" d="M430,-455C430,-455 357,-455 357,-455 351,-455 345,-449 345,-443 345,-443 345,-404 345,-404 345,-398 351,-392 357,-392 357,-392 430,-392 430,-392 436,-392 442,-398 442,-404 442,-404 442,-443 442,-443 442,-449 436,-455 430,-455"/>
<text text-anchor="middle" x="393.5" y="-443" font-family="sans" font-size="10.00">delly_p</text>
<text text-anchor="middle" x="393.5" y="-432" font-family="sans" font-size="10.00">normal: N3</text>
<text text-anchor="middle" x="393.5" y="-421" font-family="sans" font-size="10.00">path: data/bam/3</text>
<text text-anchor="middle" x="393.5" y="-410" font-family="sans" font-size="10.00">sv_type: INS</text>
<text text-anchor="middle" x="393.5" y="-399" font-family="sans" font-size="10.00">tumor: T3</text>
</g>
<!-- 11&#45;&gt;7 -->
<g id="edge13" class="edge">
<title>11&#45;&gt;7</title>
<path fill="none" stroke="grey" stroke-width="2" d="M354.89,-391.78C339.61,-379.63 322.34,-365.88 308.09,-354.54"/>
<polygon fill="grey" stroke="grey" stroke-width="2" points="310.09,-351.66 300.08,-348.17 305.73,-357.14 310.09,-351.66"/>
</g>
<!-- 12 -->
<g id="node13" class="node">
<title>12</title>
<path fill="none" stroke="#567bd8" stroke-width="2" d="M545,-455C545,-455 472,-455 472,-455 466,-455 460,-449 460,-443 460,-443 460,-404 460,-404 460,-398 466,-392 472,-392 472,-392 545,-392 545,-392 551,-392 557,-398 557,-404 557,-404 557,-443 557,-443 557,-449 551,-455 545,-455"/>
<text text-anchor="middle" x="508.5" y="-443" font-family="sans" font-size="10.00">delly_p</text>
<text text-anchor="middle" x="508.5" y="-432" font-family="sans" font-size="10.00">normal: N3</text>
<text text-anchor="middle" x="508.5" y="-421" font-family="sans" font-size="10.00">path: data/bam/3</text>
<text text-anchor="middle" x="508.5" y="-410" font-family="sans" font-size="10.00">sv_type: INV</text>
<text text-anchor="middle" x="508.5" y="-399" font-family="sans" font-size="10.00">tumor: T3</text>
</g>
<!-- 12&#45;&gt;7 -->
<g id="edge14" class="edge">
<title>12&#45;&gt;7</title>
<path fill="none" stroke="grey" stroke-width="2" d="M459.75,-396.06C456.65,-394.63 453.55,-393.26 450.5,-392 400.62,-371.35 385.01,-375.04 334.5,-356 331.21,-354.76 327.84,-353.43 324.46,-352.04"/>
<polygon fill="grey" stroke="grey" stroke-width="2" points="325.56,-348.71 314.99,-348.04 322.84,-355.15 325.56,-348.71"/>
</g>
<!-- 13 -->
<g id="node14" class="node">
<title>13</title>
<path fill="none" stroke="#56d0d8" stroke-width="2" d="M417.5,-180C417.5,-180 359.5,-180 359.5,-180 353.5,-180 347.5,-174 347.5,-168 347.5,-168 347.5,-156 347.5,-156 347.5,-150 353.5,-144 359.5,-144 359.5,-144 417.5,-144 417.5,-144 423.5,-144 429.5,-150 429.5,-156 429.5,-156 429.5,-168 429.5,-168 429.5,-174 423.5,-180 417.5,-180"/>
<text text-anchor="middle" x="388.5" y="-159.5" font-family="sans" font-size="10.00">survivor_filter</text>
</g>
<!-- 13&#45;&gt;1 -->
<g id="edge4" class="edge">
<title>13&#45;&gt;1</title>
<path fill="none" stroke="grey" stroke-width="2" d="M375.15,-143.7C368.74,-135.39 360.94,-125.28 353.89,-116.14"/>
<polygon fill="grey" stroke="grey" stroke-width="2" points="356.57,-113.88 347.69,-108.1 351.03,-118.16 356.57,-113.88"/>
</g>
<!-- 14 -->
<g id="node15" class="node">
<title>14</title>
<path fill="none" stroke="#56d86b" stroke-width="2" d="M430,-268C430,-268 355,-268 355,-268 349,-268 343,-262 343,-256 343,-256 343,-228 343,-228 343,-222 349,-216 355,-216 355,-216 430,-216 430,-216 436,-216 442,-222 442,-228 442,-228 442,-256 442,-256 442,-262 436,-268 430,-268"/>
<text text-anchor="middle" x="392.5" y="-256" font-family="sans" font-size="10.00">viola</text>
<text text-anchor="middle" x="392.5" y="-245" font-family="sans" font-size="10.00">outdir: lumpy_out</text>
<text text-anchor="middle" x="392.5" y="-234" font-family="sans" font-size="10.00">prefix: lumpy</text>
<text text-anchor="middle" x="392.5" y="-223" font-family="sans" font-size="10.00">sample: T3&#45;&#45;N3</text>
</g>
<!-- 14&#45;&gt;13 -->
<g id="edge15" class="edge">
<title>14&#45;&gt;13</title>
<path fill="none" stroke="grey" stroke-width="2" d="M391.21,-215.89C390.8,-207.84 390.34,-198.88 389.92,-190.66"/>
<polygon fill="grey" stroke="grey" stroke-width="2" points="393.4,-190.22 389.39,-180.41 386.41,-190.58 393.4,-190.22"/>
</g>
<!-- 15 -->
<g id="node16" class="node">
<title>15</title>
<path fill="none" stroke="#56d8b9" stroke-width="2" d="M429,-356C429,-356 356,-356 356,-356 350,-356 344,-350 344,-344 344,-344 344,-316 344,-316 344,-310 350,-304 356,-304 356,-304 429,-304 429,-304 435,-304 441,-310 441,-316 441,-316 441,-344 441,-344 441,-350 435,-356 429,-356"/>
<text text-anchor="middle" x="392.5" y="-344" font-family="sans" font-size="10.00">lumpy_p</text>
<text text-anchor="middle" x="392.5" y="-333" font-family="sans" font-size="10.00">normal: N3</text>
<text text-anchor="middle" x="392.5" y="-322" font-family="sans" font-size="10.00">path: data/bam/3</text>
<text text-anchor="middle" x="392.5" y="-311" font-family="sans" font-size="10.00">tumor: T3</text>
</g>
<!-- 15&#45;&gt;14 -->
<g id="edge16" class="edge">
<title>15&#45;&gt;14</title>
<path fill="none" stroke="grey" stroke-width="2" d="M392.5,-303.66C392.5,-295.7 392.5,-286.76 392.5,-278.24"/>
<polygon fill="grey" stroke="grey" stroke-width="2" points="396,-278.16 392.5,-268.16 389,-278.16 396,-278.16"/>
</g>
<!-- 16 -->
<g id="node17" class="node">
<title>16</title>
<path fill="none" stroke="#56d0d8" stroke-width="2" d="M529.5,-180C529.5,-180 471.5,-180 471.5,-180 465.5,-180 459.5,-174 459.5,-168 459.5,-168 459.5,-156 459.5,-156 459.5,-150 465.5,-144 471.5,-144 471.5,-144 529.5,-144 529.5,-144 535.5,-144 541.5,-150 541.5,-156 541.5,-156 541.5,-168 541.5,-168 541.5,-174 535.5,-180 529.5,-180"/>
<text text-anchor="middle" x="500.5" y="-159.5" font-family="sans" font-size="10.00">survivor_filter</text>
</g>
<!-- 16&#45;&gt;1 -->
<g id="edge5" class="edge">
<title>16&#45;&gt;1</title>
<path fill="none" stroke="grey" stroke-width="2" d="M459.89,-143.88C437.1,-134.26 408.47,-122.19 384.33,-112.01"/>
<polygon fill="grey" stroke="grey" stroke-width="2" points="385.55,-108.73 374.98,-108.07 382.83,-115.18 385.55,-108.73"/>
</g>
<!-- 17 -->
<g id="node18" class="node">
<title>17</title>
<path fill="none" stroke="#56d86b" stroke-width="2" d="M546.5,-268C546.5,-268 472.5,-268 472.5,-268 466.5,-268 460.5,-262 460.5,-256 460.5,-256 460.5,-228 460.5,-228 460.5,-222 466.5,-216 472.5,-216 472.5,-216 546.5,-216 546.5,-216 552.5,-216 558.5,-222 558.5,-228 558.5,-228 558.5,-256 558.5,-256 558.5,-262 552.5,-268 546.5,-268"/>
<text text-anchor="middle" x="509.5" y="-256" font-family="sans" font-size="10.00">viola</text>
<text text-anchor="middle" x="509.5" y="-245" font-family="sans" font-size="10.00">outdir: gridss_out</text>
<text text-anchor="middle" x="509.5" y="-234" font-family="sans" font-size="10.00">prefix: gridss</text>
<text text-anchor="middle" x="509.5" y="-223" font-family="sans" font-size="10.00">sample: T3&#45;&#45;N3</text>
</g>
<!-- 17&#45;&gt;16 -->
<g id="edge17" class="edge">
<title>17&#45;&gt;16</title>
<path fill="none" stroke="grey" stroke-width="2" d="M506.6,-215.89C505.66,-207.75 504.62,-198.68 503.66,-190.38"/>
<polygon fill="grey" stroke="grey" stroke-width="2" points="507.13,-189.94 502.51,-180.41 500.18,-190.75 507.13,-189.94"/>
</g>
<!-- 18 -->
<g id="node19" class="node">
<title>18</title>
<path fill="none" stroke="#d8a456" stroke-width="2" d="M546,-356C546,-356 473,-356 473,-356 467,-356 461,-350 461,-344 461,-344 461,-316 461,-316 461,-310 467,-304 473,-304 473,-304 546,-304 546,-304 552,-304 558,-310 558,-316 558,-316 558,-344 558,-344 558,-350 552,-356 546,-356"/>
<text text-anchor="middle" x="509.5" y="-344" font-family="sans" font-size="10.00">gridss_p</text>
<text text-anchor="middle" x="509.5" y="-333" font-family="sans" font-size="10.00">normal: N3</text>
<text text-anchor="middle" x="509.5" y="-322" font-family="sans" font-size="10.00">path: data/bam/3</text>
<text text-anchor="middle" x="509.5" y="-311" font-family="sans" font-size="10.00">tumor: T3</text>
</g>
<!-- 18&#45;&gt;17 -->
<g id="edge18" class="edge">
<title>18&#45;&gt;17</title>
<path fill="none" stroke="grey" stroke-width="2" d="M509.5,-303.66C509.5,-295.7 509.5,-286.76 509.5,-278.24"/>
<polygon fill="grey" stroke="grey" stroke-width="2" points="513,-278.16 509.5,-268.16 506,-278.16 513,-278.16"/>
</g>
</g>
</svg>
