<?xml version="1.0" encoding="UTF-8" standalone="no"?>
<!DOCTYPE svg PUBLIC "-//W3C//DTD SVG 1.1//EN"
 "http://www.w3.org/Graphics/SVG/1.1/DTD/svg11.dtd">
<!-- Generated by graphviz version 3.0.0 (20220315.2325)
 -->
<!-- Title: snakemake_dag Pages: 1 -->
<svg width="567pt" height="430pt"
 viewBox="0.00 0.00 566.50 430.00" xmlns="http://www.w3.org/2000/svg" xmlns:xlink="http://www.w3.org/1999/xlink">
<g id="graph0" class="graph" transform="scale(1 1) rotate(0) translate(4 426)">
<title>snakemake_dag</title>
<polygon fill="white" stroke="transparent" points="-4,4 -4,-426 562.5,-426 562.5,4 -4,4"/>
<!-- 0 -->
<g id="node1" class="node">
<title>0</title>
<path fill="none" stroke="#b6d856" stroke-width="2" d="M349.5,-36C349.5,-36 319.5,-36 319.5,-36 313.5,-36 307.5,-30 307.5,-24 307.5,-24 307.5,-12 307.5,-12 307.5,-6 313.5,0 319.5,0 319.5,0 349.5,0 349.5,0 355.5,0 361.5,-6 361.5,-12 361.5,-12 361.5,-24 361.5,-24 361.5,-30 355.5,-36 349.5,-36"/>
<text text-anchor="middle" x="334.5" y="-15.5" font-family="sans" font-size="10.00">all</text>
</g>
<!-- 1 -->
<g id="node2" class="node">
<title>1</title>
<path fill="none" stroke="#56d0d8" stroke-width="2" d="M367.5,-108C367.5,-108 301.5,-108 301.5,-108 295.5,-108 289.5,-102 289.5,-96 289.5,-96 289.5,-84 289.5,-84 289.5,-78 295.5,-72 301.5,-72 301.5,-72 367.5,-72 367.5,-72 373.5,-72 379.5,-78 379.5,-84 379.5,-84 379.5,-96 379.5,-96 379.5,-102 373.5,-108 367.5,-108"/>
<text text-anchor="middle" x="334.5" y="-87.5" font-family="sans" font-size="10.00">survivor_merge</text>
</g>
<!-- 1&#45;&gt;0 -->
<g id="edge1" class="edge">
<title>1&#45;&gt;0</title>
<path fill="none" stroke="grey" stroke-width="2" d="M334.5,-71.7C334.5,-63.98 334.5,-54.71 334.5,-46.11"/>
<polygon fill="grey" stroke="grey" stroke-width="2" points="338,-46.1 334.5,-36.1 331,-46.1 338,-46.1"/>
</g>
<!-- 2 -->
<g id="node3" class="node">
<title>2</title>
<path fill="none" stroke="#68d856" stroke-width="2" d="M203.5,-180C203.5,-180 145.5,-180 145.5,-180 139.5,-180 133.5,-174 133.5,-168 133.5,-168 133.5,-156 133.5,-156 133.5,-150 139.5,-144 145.5,-144 145.5,-144 203.5,-144 203.5,-144 209.5,-144 215.5,-150 215.5,-156 215.5,-156 215.5,-168 215.5,-168 215.5,-174 209.5,-180 203.5,-180"/>
<text text-anchor="middle" x="174.5" y="-159.5" font-family="sans" font-size="10.00">survivor_filter</text>
</g>
<!-- 2&#45;&gt;1 -->
<g id="edge2" class="edge">
<title>2&#45;&gt;1</title>
<path fill="none" stroke="grey" stroke-width="2" d="M213.64,-143.88C235.51,-134.31 262.96,-122.3 286.16,-112.15"/>
<polygon fill="grey" stroke="grey" stroke-width="2" points="287.73,-115.28 295.49,-108.07 284.92,-108.87 287.73,-115.28"/>
</g>
<!-- 3 -->
<g id="node4" class="node">
<title>3</title>
<path fill="none" stroke="#56d892" stroke-width="2" d="M202.5,-257C202.5,-257 126.5,-257 126.5,-257 120.5,-257 114.5,-251 114.5,-245 114.5,-245 114.5,-228 114.5,-228 114.5,-222 120.5,-216 126.5,-216 126.5,-216 202.5,-216 202.5,-216 208.5,-216 214.5,-222 214.5,-228 214.5,-228 214.5,-245 214.5,-245 214.5,-251 208.5,-257 202.5,-257"/>
<text text-anchor="middle" x="164.5" y="-245" font-family="sans" font-size="10.00">viola</text>
<text text-anchor="middle" x="164.5" y="-234" font-family="sans" font-size="10.00">outdir: manta_out</text>
<text text-anchor="middle" x="164.5" y="-223" font-family="sans" font-size="10.00">prefix: manta</text>
</g>
<!-- 3&#45;&gt;2 -->
<g id="edge6" class="edge">
<title>3&#45;&gt;2</title>
<path fill="none" stroke="grey" stroke-width="2" d="M167.23,-215.69C168.31,-207.91 169.56,-198.84 170.71,-190.45"/>
<polygon fill="grey" stroke="grey" stroke-width="2" points="174.21,-190.7 172.11,-180.32 167.28,-189.75 174.21,-190.7"/>
</g>
<!-- 4 -->
<g id="node5" class="node">
<title>4</title>
<path fill="none" stroke="#d87d56" stroke-width="2" d="M201,-334C201,-334 128,-334 128,-334 122,-334 116,-328 116,-322 116,-322 116,-305 116,-305 116,-299 122,-293 128,-293 128,-293 201,-293 201,-293 207,-293 213,-299 213,-305 213,-305 213,-322 213,-322 213,-328 207,-334 201,-334"/>
<text text-anchor="middle" x="164.5" y="-322" font-family="sans" font-size="10.00">manta_s</text>
<text text-anchor="middle" x="164.5" y="-311" font-family="sans" font-size="10.00">path: data/bam/3</text>
<text text-anchor="middle" x="164.5" y="-300" font-family="sans" font-size="10.00">sample: T3</text>
</g>
<!-- 4&#45;&gt;3 -->
<g id="edge7" class="edge">
<title>4&#45;&gt;3</title>
<path fill="none" stroke="grey" stroke-width="2" d="M164.5,-292.79C164.5,-284.96 164.5,-275.77 164.5,-267.16"/>
<polygon fill="grey" stroke="grey" stroke-width="2" points="168,-267.07 164.5,-257.07 161,-267.07 168,-267.07"/>
</g>
<!-- 5 -->
<g id="node6" class="node">
<title>5</title>
<path fill="none" stroke="#68d856" stroke-width="2" d="M310.5,-180C310.5,-180 252.5,-180 252.5,-180 246.5,-180 240.5,-174 240.5,-168 240.5,-168 240.5,-156 240.5,-156 240.5,-150 246.5,-144 252.5,-144 252.5,-144 310.5,-144 310.5,-144 316.5,-144 322.5,-150 322.5,-156 322.5,-156 322.5,-168 322.5,-168 322.5,-174 316.5,-180 310.5,-180"/>
<text text-anchor="middle" x="281.5" y="-159.5" font-family="sans" font-size="10.00">survivor_filter</text>
</g>
<!-- 5&#45;&gt;1 -->
<g id="edge3" class="edge">
<title>5&#45;&gt;1</title>
<path fill="none" stroke="grey" stroke-width="2" d="M294.6,-143.7C300.89,-135.39 308.55,-125.28 315.46,-116.14"/>
<polygon fill="grey" stroke="grey" stroke-width="2" points="318.3,-118.19 321.55,-108.1 312.72,-113.96 318.3,-118.19"/>
</g>
<!-- 6 -->
<g id="node7" class="node">
<title>6</title>
<path fill="none" stroke="#56d892" stroke-width="2" d="M312.5,-257C312.5,-257 244.5,-257 244.5,-257 238.5,-257 232.5,-251 232.5,-245 232.5,-245 232.5,-228 232.5,-228 232.5,-222 238.5,-216 244.5,-216 244.5,-216 312.5,-216 312.5,-216 318.5,-216 324.5,-222 324.5,-228 324.5,-228 324.5,-245 324.5,-245 324.5,-251 318.5,-257 312.5,-257"/>
<text text-anchor="middle" x="278.5" y="-245" font-family="sans" font-size="10.00">viola</text>
<text text-anchor="middle" x="278.5" y="-234" font-family="sans" font-size="10.00">outdir: delly_out</text>
<text text-anchor="middle" x="278.5" y="-223" font-family="sans" font-size="10.00">prefix: delly</text>
</g>
<!-- 6&#45;&gt;5 -->
<g id="edge8" class="edge">
<title>6&#45;&gt;5</title>
<path fill="none" stroke="grey" stroke-width="2" d="M279.32,-215.69C279.64,-207.91 280.02,-198.84 280.36,-190.45"/>
<polygon fill="grey" stroke="grey" stroke-width="2" points="283.87,-190.46 280.78,-180.32 276.87,-190.17 283.87,-190.46"/>
</g>
<!-- 7 -->
<g id="node8" class="node">
<title>7</title>
<path fill="none" stroke="#d8a456" stroke-width="2" d="M303.5,-331.5C303.5,-331.5 253.5,-331.5 253.5,-331.5 247.5,-331.5 241.5,-325.5 241.5,-319.5 241.5,-319.5 241.5,-307.5 241.5,-307.5 241.5,-301.5 247.5,-295.5 253.5,-295.5 253.5,-295.5 303.5,-295.5 303.5,-295.5 309.5,-295.5 315.5,-301.5 315.5,-307.5 315.5,-307.5 315.5,-319.5 315.5,-319.5 315.5,-325.5 309.5,-331.5 303.5,-331.5"/>
<text text-anchor="middle" x="278.5" y="-311" font-family="sans" font-size="10.00">delly_merge</text>
</g>
<!-- 7&#45;&gt;6 -->
<g id="edge9" class="edge">
<title>7&#45;&gt;6</title>
<path fill="none" stroke="grey" stroke-width="2" d="M278.5,-295.48C278.5,-287.1 278.5,-276.76 278.5,-267.13"/>
<polygon fill="grey" stroke="grey" stroke-width="2" points="282,-267.1 278.5,-257.1 275,-267.1 282,-267.1"/>
</g>
<!-- 8 -->
<g id="node9" class="node">
<title>8</title>
<path fill="none" stroke="#567bd8" stroke-width="2" d="M85,-422C85,-422 12,-422 12,-422 6,-422 0,-416 0,-410 0,-410 0,-382 0,-382 0,-376 6,-370 12,-370 12,-370 85,-370 85,-370 91,-370 97,-376 97,-382 97,-382 97,-410 97,-410 97,-416 91,-422 85,-422"/>
<text text-anchor="middle" x="48.5" y="-410" font-family="sans" font-size="10.00">delly_s</text>
<text text-anchor="middle" x="48.5" y="-399" font-family="sans" font-size="10.00">path: data/bam/3</text>
<text text-anchor="middle" x="48.5" y="-388" font-family="sans" font-size="10.00">sample: T3</text>
<text text-anchor="middle" x="48.5" y="-377" font-family="sans" font-size="10.00">sv_type: BND</text>
</g>
<!-- 8&#45;&gt;7 -->
<g id="edge10" class="edge">
<title>8&#45;&gt;7</title>
<path fill="none" stroke="grey" stroke-width="2" d="M97.17,-373.22C99.98,-372.1 102.77,-371.02 105.5,-370 156.08,-351.13 170.18,-350.74 221.5,-334 224.83,-332.91 228.27,-331.78 231.73,-330.62"/>
<polygon fill="grey" stroke="grey" stroke-width="2" points="233.09,-333.86 241.45,-327.35 230.86,-327.22 233.09,-333.86"/>
</g>
<!-- 9 -->
<g id="node10" class="node">
<title>9</title>
<path fill="none" stroke="#567bd8" stroke-width="2" d="M200,-422C200,-422 127,-422 127,-422 121,-422 115,-416 115,-410 115,-410 115,-382 115,-382 115,-376 121,-370 127,-370 127,-370 200,-370 200,-370 206,-370 212,-376 212,-382 212,-382 212,-410 212,-410 212,-416 206,-422 200,-422"/>
<text text-anchor="middle" x="163.5" y="-410" font-family="sans" font-size="10.00">delly_s</text>
<text text-anchor="middle" x="163.5" y="-399" font-family="sans" font-size="10.00">path: data/bam/3</text>
<text text-anchor="middle" x="163.5" y="-388" font-family="sans" font-size="10.00">sample: T3</text>
<text text-anchor="middle" x="163.5" y="-377" font-family="sans" font-size="10.00">sv_type: DEL</text>
</g>
<!-- 9&#45;&gt;7 -->
<g id="edge11" class="edge">
<title>9&#45;&gt;7</title>
<path fill="none" stroke="grey" stroke-width="2" d="M199.26,-369.97C214.14,-359.55 231.3,-347.54 245.84,-337.36"/>
<polygon fill="grey" stroke="grey" stroke-width="2" points="247.87,-340.21 254.06,-331.61 243.86,-334.48 247.87,-340.21"/>
</g>
<!-- 10 -->
<g id="node11" class="node">
<title>10</title>
<path fill="none" stroke="#567bd8" stroke-width="2" d="M315,-422C315,-422 242,-422 242,-422 236,-422 230,-416 230,-410 230,-410 230,-382 230,-382 230,-376 236,-370 242,-370 242,-370 315,-370 315,-370 321,-370 327,-376 327,-382 327,-382 327,-410 327,-410 327,-416 321,-422 315,-422"/>
<text text-anchor="middle" x="278.5" y="-410" font-family="sans" font-size="10.00">delly_s</text>
<text text-anchor="middle" x="278.5" y="-399" font-family="sans" font-size="10.00">path: data/bam/3</text>
<text text-anchor="middle" x="278.5" y="-388" font-family="sans" font-size="10.00">sample: T3</text>
<text text-anchor="middle" x="278.5" y="-377" font-family="sans" font-size="10.00">sv_type: DUP</text>
</g>
<!-- 10&#45;&gt;7 -->
<g id="edge12" class="edge">
<title>10&#45;&gt;7</title>
<path fill="none" stroke="grey" stroke-width="2" d="M278.5,-369.97C278.5,-361.01 278.5,-350.88 278.5,-341.74"/>
<polygon fill="grey" stroke="grey" stroke-width="2" points="282,-341.61 278.5,-331.61 275,-341.61 282,-341.61"/>
</g>
<!-- 11 -->
<g id="node12" class="node">
<title>11</title>
<path fill="none" stroke="#567bd8" stroke-width="2" d="M430,-422C430,-422 357,-422 357,-422 351,-422 345,-416 345,-410 345,-410 345,-382 345,-382 345,-376 351,-370 357,-370 357,-370 430,-370 430,-370 436,-370 442,-376 442,-382 442,-382 442,-410 442,-410 442,-416 436,-422 430,-422"/>
<text text-anchor="middle" x="393.5" y="-410" font-family="sans" font-size="10.00">delly_s</text>
<text text-anchor="middle" x="393.5" y="-399" font-family="sans" font-size="10.00">path: data/bam/3</text>
<text text-anchor="middle" x="393.5" y="-388" font-family="sans" font-size="10.00">sample: T3</text>
<text text-anchor="middle" x="393.5" y="-377" font-family="sans" font-size="10.00">sv_type: INS</text>
</g>
<!-- 11&#45;&gt;7 -->
<g id="edge13" class="edge">
<title>11&#45;&gt;7</title>
<path fill="none" stroke="grey" stroke-width="2" d="M357.74,-369.97C342.86,-359.55 325.7,-347.54 311.16,-337.36"/>
<polygon fill="grey" stroke="grey" stroke-width="2" points="313.14,-334.48 302.94,-331.61 309.13,-340.21 313.14,-334.48"/>
</g>
<!-- 12 -->
<g id="node13" class="node">
<title>12</title>
<path fill="none" stroke="#567bd8" stroke-width="2" d="M545,-422C545,-422 472,-422 472,-422 466,-422 460,-416 460,-410 460,-410 460,-382 460,-382 460,-376 466,-370 472,-370 472,-370 545,-370 545,-370 551,-370 557,-376 557,-382 557,-382 557,-410 557,-410 557,-416 551,-422 545,-422"/>
<text text-anchor="middle" x="508.5" y="-410" font-family="sans" font-size="10.00">delly_s</text>
<text text-anchor="middle" x="508.5" y="-399" font-family="sans" font-size="10.00">path: data/bam/3</text>
<text text-anchor="middle" x="508.5" y="-388" font-family="sans" font-size="10.00">sample: T3</text>
<text text-anchor="middle" x="508.5" y="-377" font-family="sans" font-size="10.00">sv_type: INV</text>
</g>
<!-- 12&#45;&gt;7 -->
<g id="edge14" class="edge">
<title>12&#45;&gt;7</title>
<path fill="none" stroke="grey" stroke-width="2" d="M459.92,-373.62C456.74,-372.36 453.59,-371.14 450.5,-370 399.86,-351.29 385.77,-350.88 334.5,-334 331.56,-333.03 328.55,-332.03 325.5,-331"/>
<polygon fill="grey" stroke="grey" stroke-width="2" points="326.39,-327.6 315.79,-327.68 324.13,-334.23 326.39,-327.6"/>
</g>
<!-- 13 -->
<g id="node14" class="node">
<title>13</title>
<path fill="none" stroke="#68d856" stroke-width="2" d="M417.5,-180C417.5,-180 359.5,-180 359.5,-180 353.5,-180 347.5,-174 347.5,-168 347.5,-168 347.5,-156 347.5,-156 347.5,-150 353.5,-144 359.5,-144 359.5,-144 417.5,-144 417.5,-144 423.5,-144 429.5,-150 429.5,-156 429.5,-156 429.5,-168 429.5,-168 429.5,-174 423.5,-180 417.5,-180"/>
<text text-anchor="middle" x="388.5" y="-159.5" font-family="sans" font-size="10.00">survivor_filter</text>
</g>
<!-- 13&#45;&gt;1 -->
<g id="edge4" class="edge">
<title>13&#45;&gt;1</title>
<path fill="none" stroke="grey" stroke-width="2" d="M375.15,-143.7C368.74,-135.39 360.94,-125.28 353.89,-116.14"/>
<polygon fill="grey" stroke="grey" stroke-width="2" points="356.57,-113.88 347.69,-108.1 351.03,-118.16 356.57,-113.88"/>
</g>
<!-- 14 -->
<g id="node15" class="node">
<title>14</title>
<path fill="none" stroke="#56d892" stroke-width="2" d="M430,-257C430,-257 355,-257 355,-257 349,-257 343,-251 343,-245 343,-245 343,-228 343,-228 343,-222 349,-216 355,-216 355,-216 430,-216 430,-216 436,-216 442,-222 442,-228 442,-228 442,-245 442,-245 442,-251 436,-257 430,-257"/>
<text text-anchor="middle" x="392.5" y="-245" font-family="sans" font-size="10.00">viola</text>
<text text-anchor="middle" x="392.5" y="-234" font-family="sans" font-size="10.00">outdir: lumpy_out</text>
<text text-anchor="middle" x="392.5" y="-223" font-family="sans" font-size="10.00">prefix: lumpy</text>
</g>
<!-- 14&#45;&gt;13 -->
<g id="edge15" class="edge">
<title>14&#45;&gt;13</title>
<path fill="none" stroke="grey" stroke-width="2" d="M391.41,-215.69C390.98,-207.91 390.48,-198.84 390.01,-190.45"/>
<polygon fill="grey" stroke="grey" stroke-width="2" points="393.5,-190.11 389.46,-180.32 386.51,-190.5 393.5,-190.11"/>
</g>
<!-- 15 -->
<g id="node16" class="node">
<title>15</title>
<path fill="none" stroke="#8fd856" stroke-width="2" d="M429,-334C429,-334 356,-334 356,-334 350,-334 344,-328 344,-322 344,-322 344,-305 344,-305 344,-299 350,-293 356,-293 356,-293 429,-293 429,-293 435,-293 441,-299 441,-305 441,-305 441,-322 441,-322 441,-328 435,-334 429,-334"/>
<text text-anchor="middle" x="392.5" y="-322" font-family="sans" font-size="10.00">lumpy_s</text>
<text text-anchor="middle" x="392.5" y="-311" font-family="sans" font-size="10.00">path: data/bam/3</text>
<text text-anchor="middle" x="392.5" y="-300" font-family="sans" font-size="10.00">sample: T3</text>
</g>
<!-- 15&#45;&gt;14 -->
<g id="edge16" class="edge">
<title>15&#45;&gt;14</title>
<path fill="none" stroke="grey" stroke-width="2" d="M392.5,-292.79C392.5,-284.96 392.5,-275.77 392.5,-267.16"/>
<polygon fill="grey" stroke="grey" stroke-width="2" points="396,-267.07 392.5,-257.07 389,-267.07 396,-267.07"/>
</g>
<!-- 16 -->
<g id="node17" class="node">
<title>16</title>
<path fill="none" stroke="#68d856" stroke-width="2" d="M529.5,-180C529.5,-180 471.5,-180 471.5,-180 465.5,-180 459.5,-174 459.5,-168 459.5,-168 459.5,-156 459.5,-156 459.5,-150 465.5,-144 471.5,-144 471.5,-144 529.5,-144 529.5,-144 535.5,-144 541.5,-150 541.5,-156 541.5,-156 541.5,-168 541.5,-168 541.5,-174 535.5,-180 529.5,-180"/>
<text text-anchor="middle" x="500.5" y="-159.5" font-family="sans" font-size="10.00">survivor_filter</text>
</g>
<!-- 16&#45;&gt;1 -->
<g id="edge5" class="edge">
<title>16&#45;&gt;1</title>
<path fill="none" stroke="grey" stroke-width="2" d="M459.89,-143.88C437.1,-134.26 408.47,-122.19 384.33,-112.01"/>
<polygon fill="grey" stroke="grey" stroke-width="2" points="385.55,-108.73 374.98,-108.07 382.83,-115.18 385.55,-108.73"/>
</g>
<!-- 17 -->
<g id="node18" class="node">
<title>17</title>
<path fill="none" stroke="#56d892" stroke-width="2" d="M546.5,-257C546.5,-257 472.5,-257 472.5,-257 466.5,-257 460.5,-251 460.5,-245 460.5,-245 460.5,-228 460.5,-228 460.5,-222 466.5,-216 472.5,-216 472.5,-216 546.5,-216 546.5,-216 552.5,-216 558.5,-222 558.5,-228 558.5,-228 558.5,-245 558.5,-245 558.5,-251 552.5,-257 546.5,-257"/>
<text text-anchor="middle" x="509.5" y="-245" font-family="sans" font-size="10.00">viola</text>
<text text-anchor="middle" x="509.5" y="-234" font-family="sans" font-size="10.00">outdir: gridss_out</text>
<text text-anchor="middle" x="509.5" y="-223" font-family="sans" font-size="10.00">prefix: gridss</text>
</g>
<!-- 17&#45;&gt;16 -->
<g id="edge17" class="edge">
<title>17&#45;&gt;16</title>
<path fill="none" stroke="grey" stroke-width="2" d="M507.04,-215.69C506.07,-207.91 504.95,-198.84 503.91,-190.45"/>
<polygon fill="grey" stroke="grey" stroke-width="2" points="507.36,-189.81 502.65,-180.32 500.41,-190.67 507.36,-189.81"/>
</g>
<!-- 18 -->
<g id="node19" class="node">
<title>18</title>
<path fill="none" stroke="#d85656" stroke-width="2" d="M546,-334C546,-334 473,-334 473,-334 467,-334 461,-328 461,-322 461,-322 461,-305 461,-305 461,-299 467,-293 473,-293 473,-293 546,-293 546,-293 552,-293 558,-299 558,-305 558,-305 558,-322 558,-322 558,-328 552,-334 546,-334"/>
<text text-anchor="middle" x="509.5" y="-322" font-family="sans" font-size="10.00">gridss_s</text>
<text text-anchor="middle" x="509.5" y="-311" font-family="sans" font-size="10.00">path: data/bam/3</text>
<text text-anchor="middle" x="509.5" y="-300" font-family="sans" font-size="10.00">sample: T3</text>
</g>
<!-- 18&#45;&gt;17 -->
<g id="edge18" class="edge">
<title>18&#45;&gt;17</title>
<path fill="none" stroke="grey" stroke-width="2" d="M509.5,-292.79C509.5,-284.96 509.5,-275.77 509.5,-267.16"/>
<polygon fill="grey" stroke="grey" stroke-width="2" points="513,-267.07 509.5,-257.07 506,-267.07 513,-267.07"/>
</g>
</g>
</svg>
